<svg width="56" height="54" viewBox="0 0 56 54" fill="none" xmlns="http://www.w3.org/2000/svg">
<path d="M54.0252 19.5981L52.9114 15.8394L54.1643 14.2037C58.793 8.11333 50.1969 -1.42247 43.3756 2.23176C42.6448 2.61459 41.7748 2.64939 40.522 2.33617C38.225 1.74453 30.7077 0.491651 29.1764 0.317639C24.0953 -0.308801 25.4873 2.16215 27.6798 2.37096C32.6217 2.89299 32.5173 2.61458 31.1949 4.00667C29.1415 6.19921 30.9165 14.7606 34.1879 18.4844C37.1461 21.8602 44.3153 23.6699 46.5427 21.5818C50.9626 17.4055 49.7445 36.7556 45.1854 42.6719C30.9861 61.1519 1.05608 43.3332 6.45043 19.5981L7.07697 16.8139L9.6523 18.5192C14.1418 21.5122 15.9862 20.0157 12.5408 16.1875C6.90286 9.95785 8.81708 2.02294 14.7335 7.06926C16.7172 8.77457 19.1534 9.01819 20.1626 7.6609C23.1556 3.55424 24.9304 5.01593 24.8956 9.40102C24.8956 11.7676 23.782 13.3685 19.2229 17.6143C15.2207 21.3382 15.0466 22.5911 18.5269 22.5911C20.8586 22.5911 28.4106 13.6469 29.0719 10.1319C30.0115 5.18994 23.3295 1.15289 19.3621 4.25029C18.4572 4.98114 17.9005 5.12034 17.5525 4.77232C17.2045 4.4243 17.274 3.79785 18.3877 3.17141C19.5014 2.54497 21.2067 2.05775 20.8239 1.01368C20.3018 -0.378405 16.4387 1.4313 15.9167 1.74452C15.3947 2.02294 13.5153 3.24101 11.9144 3.24101C6.41569 3.24101 4.32756 4.91152 4.77999 8.91378C5.0236 11.1411 4.88446 11.7676 3.63158 13.9949C-6.14785 31.3264 7.07694 53.217 27.5755 53.6347C48.422 54.1219 59.8719 39.3309 54.0252 19.5981ZM46.995 15.9786C43.2364 20.1549 42.6796 20.3289 39.5822 18.5192C37.1113 17.0575 35.0927 13.2641 34.6751 9.2618C34.2575 5.05073 36.4152 3.93706 40.1043 6.44282L41.914 7.6957L43.7237 6.51243C48.9092 3.06701 55.7304 6.30362 46.995 15.9786Z" fill="black"/>
</svg>
