<svg width="14" height="14" viewBox="0 0 14 14" fill="none" xmlns="http://www.w3.org/2000/svg">
<path d="M6.99998 6.26659C6.59331 6.26659 6.26665 6.59325 6.26665 6.99992C6.26665 7.40659 6.59331 7.73325 6.99998 7.73325C7.40665 7.73325 7.73331 7.40659 7.73331 6.99992C7.73331 6.59325 7.40665 6.26659 6.99998 6.26659ZM6.99998 0.333252C3.31998 0.333252 0.333313 3.31992 0.333313 6.99992C0.333313 10.6799 3.31998 13.6666 6.99998 13.6666C10.68 13.6666 13.6666 10.6799 13.6666 6.99992C13.6666 3.31992 10.68 0.333252 6.99998 0.333252ZM8.45998 8.45992L2.99998 10.9999L5.53998 5.53992L11 2.99992L8.45998 8.45992Z" fill="black"/>
</svg>
