<svg width="72" height="48" viewBox="0 0 72 48" fill="none" xmlns="http://www.w3.org/2000/svg">
<path d="M67.0574 19.5245C64.8345 20.7453 64.5279 20.6639 61.9984 17.49C60.7337 15.903 58.741 13.9498 57.553 13.1359L55.4451 11.671L56.8246 10.2875C59.699 7.4798 57.1313 5.68936 53.4522 7.88671L51.3827 9.10746C48.8533 8.13086 44.4459 6.38112 41.7248 5.89282C39.2721 5.44521 39.4254 5.4859 39.4254 5.44521C39.4254 5.4859 39.4253 5.60798 39.5786 2.51541C39.6553 1.21328 38.7355 0.1146 37.5475 0.0332167C35.0564 -0.170242 33.9449 0.521512 34.4432 3.20716L34.7881 4.95691C34.7881 4.95691 27.0465 5.85213 25.2069 6.09628C21.6044 6.58458 21.3363 6.5032 21.3363 4.95691C21.3363 2.02711 14.1312 1.82365 16.239 6.09628C16.7373 7.11357 17.0438 8.00879 16.9672 8.13086C16.8905 8.21224 15.5875 8.94469 14.1312 9.71783C12.6749 10.491 10.2987 12.2407 8.91902 13.5429L6.35139 15.9437L3.78357 14.6415C-0.125528 12.6883 -1.16018 14.1939 1.40756 18.1817C2.74892 20.2977 2.74888 20.2977 1.75245 21.844C-0.77697 25.669 0.832547 29.5347 7.9609 36.8185C15.3192 44.3465 31.5305 50.4909 34.8264 46.9914C35.7079 46.0555 33.3701 42.9223 31.7988 42.9223C20.7614 42.9223 5.04828 31.8541 6.65791 25.2214C8.61246 17.1644 24.3255 6.66596 41.5332 9.79922C51.3059 11.549 57.208 16.554 61.7303 26.849C62.5351 28.6802 63.2632 30.3485 63.3782 30.5113C64.298 32.2203 51.9959 38.6089 41.8015 41.7422C38.3523 42.8002 37.9307 43.085 37.9307 44.3058C37.9307 48.7005 47.0136 47.7646 53.4522 42.7188C60.9638 36.8592 70.2 33.3597 67.479 26.9711C66.9041 25.5876 66.674 24.4889 66.9806 24.3668C68.8969 23.6344 71.7712 21.437 71.9628 20.5825C72.3461 18.67 69.7017 18.0189 67.0574 19.5245Z" fill="black"/>
<path d="M48.9943 25.1062C48.8838 20.6184 47.079 16.4912 44.8321 15.1689C44.0586 14.7281 42.9535 15.2491 43.3587 16.5313C45.6056 23.9442 38.0914 24.7055 35.8445 23.1027C30.5036 19.216 33.0451 15.0888 36.3971 13.9267C38.2388 13.2856 37.5389 11.9232 33.082 12.0034C25.7888 12.1637 20.9634 18.8954 21.0002 24.7857C21.037 32.5192 26.5991 40.5331 36.176 39.9722C44.9058 39.5314 49.1785 34.0017 48.9943 25.1062Z" fill="black"/>
</svg>
