<svg width="48" height="48" viewBox="0 0 48 48" fill="none" xmlns="http://www.w3.org/2000/svg">
<g clip-path="url(#clip0_2101_16469)">
<rect width="48" height="48" rx="16" fill="#E1D6CC"/>
<path fill-rule="evenodd" clip-rule="evenodd" d="M4.65717 68.8102C12.0174 69.9363 19.5112 69.993 26.9327 69.584C29.8698 69.3625 32.8159 69.3226 35.7507 69.6058C37.4848 69.7357 45.0882 70.3212 45.7095 68.7566C45.3185 60.4252 44.5266 52.0228 42.0973 44.0101C41.0983 41.165 40.2402 38.8036 38.2903 36.4492C37.6758 35.8064 36.3505 34.4582 35.5911 34.0184C34.9332 33.6376 34.6582 33.7735 34.2805 33.1301C33.9051 32.4194 33.6282 31.2325 33.0952 30.7311C32.5525 30.2205 31.7482 30.4032 30.7513 30.5676C30.9344 28.0745 29.792 27.4395 28.2181 26.9654C25.4516 25.9018 22.7195 26.4362 22.0232 29.8286C20.7321 29.8286 20.0069 30.3883 19.2229 30.926C18.9025 31.1458 19.1254 31.7059 18.7426 31.8787C18.0343 32.1327 16.7827 32.0705 16.1008 32.3831C12.9997 33.8047 10.2377 35.8662 8.42387 38.877C4.35739 45.305 1.56403 58.8457 2.0474 66.4643C1.83562 66.7989 2.12848 67.2786 2.20292 67.6383C2.29689 67.9513 2.60117 68.1594 2.91873 68.1239C3.36188 68.6039 4.04731 68.7108 4.65717 68.8102Z" fill="#F5F4F3"/>
<path fill-rule="evenodd" clip-rule="evenodd" d="M35.1225 33.8298C35.0773 33.8044 35.1171 33.7394 35.1625 33.7609C37.3453 34.7924 39.0198 36.6022 40.1981 38.6932C41.4181 40.8583 42.1135 43.3166 42.713 45.7192L42.7346 45.806C43.3739 48.3763 43.9175 50.9732 44.4068 53.5763C44.9024 56.2125 45.3002 58.865 45.6202 61.5285C45.7785 62.8454 45.9197 64.1646 46.0297 65.4866C46.0847 66.1471 46.1347 66.8082 46.1796 67.4696C46.1975 67.7341 46.2144 67.9986 46.2289 68.2634L46.2393 68.462C46.2483 68.6421 46.2695 68.8227 46.2254 69.0004C46.1872 69.1535 46.1067 69.2922 46.0359 69.4329C45.8958 69.7108 45.5119 69.665 45.361 69.4329L45.3171 69.3652C45.217 69.2094 45.1339 69.0646 45.1025 68.8707C45.0721 68.6829 45.071 68.4862 45.0574 68.2965C45.0323 67.9475 45.0109 67.5982 44.9866 67.2491C44.9355 66.5143 44.8781 65.78 44.8145 65.0462C44.6888 63.5975 44.554 62.1502 44.3884 60.7055C44.0943 58.1381 43.7251 55.5775 43.2899 53.0305C42.8646 50.5423 42.3271 48.0795 41.7663 45.6197L41.7082 45.3653C40.7263 41.0706 39.2129 36.1249 35.1225 33.8298ZM11.8725 50.6465C11.8885 50.6036 11.9576 50.5937 11.9693 50.6465C12.1163 51.3134 12.1309 52.0003 12.1533 52.683C12.1755 53.3566 12.1746 54.0332 12.1648 54.7071C12.1289 57.1839 12.0614 59.6586 12.003 62.135C11.9738 63.3737 11.9465 64.6126 11.9254 65.8515C11.9175 66.3162 11.9108 66.7808 11.9053 67.2455L11.8985 67.8583C11.8951 68.1293 11.888 68.3969 11.8552 68.6676C11.8336 68.8456 11.7875 69.0154 11.69 69.168C11.6207 69.2764 11.522 69.3313 11.4258 69.405L11.4078 69.419C11.2851 69.5167 11.1559 69.5173 11.0343 69.419L10.9991 69.3909C10.883 69.2994 10.7827 69.228 10.7085 69.0834C10.6054 68.8823 10.5889 68.6639 10.5714 68.4423C10.5448 68.1063 10.5625 67.7654 10.5659 67.4285C10.5728 66.7526 10.5821 66.0768 10.5938 65.4009C10.6371 62.9225 10.7225 60.4437 10.8781 57.9697C10.9515 56.8044 11.0509 55.6353 11.1843 54.4747L11.2097 54.2572C11.2501 53.9157 11.287 53.5682 11.3286 53.2195C10.7079 52.7797 10.1623 52.2462 9.69711 51.6409C9.66285 51.5963 9.71925 51.5338 9.7606 51.577C10.236 52.0728 10.7811 52.4681 11.3845 52.7789C11.4834 52.049 11.6193 51.3231 11.8725 50.6465ZM22.2416 28.554C22.2501 28.5473 22.2634 28.5444 22.2716 28.554C22.405 28.7106 22.3779 28.9502 22.3822 29.1487L22.3827 29.1672C22.3923 29.4575 22.3941 29.7469 22.3931 30.0373L22.3901 30.9619V30.9619C22.3897 31.089 22.3795 31.2213 22.386 31.3492L22.3894 31.3987V31.3987C22.4594 31.471 22.492 31.5755 22.4682 31.6804C22.464 31.815 22.3941 31.9273 22.2922 31.9979L22.5106 32.3101V32.3101L22.7292 32.6221C23.1799 33.2659 23.6355 33.904 24.1103 34.5302C24.5945 35.1686 25.111 35.7829 25.6515 36.3736C25.9156 36.6622 26.1841 36.9468 26.4589 37.2251C26.5706 37.3382 26.6851 37.4485 26.7983 37.56L26.9109 37.6721C26.9774 37.7391 27.0611 37.8054 27.1053 37.8903C27.1313 37.9404 27.1372 38.0639 27.1465 38.0844C27.2299 38.269 27.0876 38.5633 26.8512 38.4712L26.8619 38.464C26.905 38.4339 26.8774 38.4334 26.7792 38.4628C26.7172 38.4626 26.6591 38.4482 26.6048 38.4197L26.5886 38.4108C26.5122 38.3717 26.4439 38.2959 26.3818 38.2354L26.3664 38.2206C26.2244 38.0865 26.089 37.9443 25.9529 37.8042C25.6688 37.5119 25.3911 37.2133 25.1223 36.9068C24.5859 36.2951 24.0775 35.6586 23.596 35.0024C23.1055 34.334 22.6496 33.6313 22.2575 32.8998C22.1087 32.6222 21.9723 32.3392 21.8416 32.053C21.5871 31.9707 21.528 31.698 21.5457 31.3908C21.4518 31.1705 21.3672 30.9456 21.3171 30.7159C21.3103 30.6844 21.3505 30.6547 21.3745 30.6823C21.456 30.7754 21.5313 30.8746 21.6038 30.9764C21.6475 30.761 21.7028 30.5628 21.7289 30.4364L21.8417 29.8787V29.8787C21.2058 29.8453 20.509 30.1084 20.0707 30.5692C20.0471 30.6891 19.9554 30.775 19.8661 30.8871C19.764 31.0153 19.6749 31.1592 19.6085 31.3096C19.4612 31.6431 19.5443 32.1345 19.2584 32.3792C19.2286 32.4047 19.1953 32.4224 19.161 32.4333C19.2966 33.1034 19.2351 33.8418 19.2321 34.5217L19.232 34.5815C19.2327 35.3423 19.2074 36.1038 19.1783 36.8641L19.1486 37.6165C19.1101 38.62 19.0851 39.6239 19.1819 40.6219C19.6239 40.2276 20.0809 39.8513 20.5536 39.4928C20.8645 39.257 21.1815 39.0296 21.5044 38.8107L21.7667 38.6342C22.081 38.4218 22.403 38.2034 22.7471 38.0513C23.1972 37.8525 23.6253 37.9209 24.0599 38.1248C24.4927 38.3279 24.9126 38.5638 25.3371 38.7839C25.7689 39.0078 26.2015 39.2297 26.6339 39.4522C26.9203 39.5997 27.3401 39.7328 27.5501 40.0041C27.5636 39.9441 27.5792 39.8842 27.5974 39.8246C27.5766 39.7336 27.5846 39.6353 27.6353 39.5416C28.3412 38.235 28.9943 36.8972 29.6429 35.5611C29.9712 34.8849 30.2833 34.2007 30.6122 33.5249L30.9319 32.8667C30.9853 32.757 31.0389 32.6475 31.0928 32.5381C31.1735 32.3743 31.2575 32.2121 31.339 32.0487C31.3735 31.9797 31.4167 31.9111 31.4503 31.8414L31.4662 31.8065C31.467 31.8047 31.5444 31.5593 31.4846 31.5827L31.4794 31.5852C31.4489 31.6026 31.4245 31.5639 31.4442 31.5392C31.5289 31.4338 31.6467 31.5272 31.695 31.6247C31.828 31.8932 31.5843 32.3146 31.4905 32.5717L31.4854 32.5861C31.1944 33.4157 30.8649 34.2298 30.5273 35.0411C29.8801 36.5965 29.1847 38.128 28.4909 39.6622L28.4827 39.6885V39.6885C28.6307 39.5743 28.7886 39.4706 28.9239 39.3697C29.2651 39.1151 29.6163 38.873 29.967 38.6317C30.61 38.1891 31.2705 37.7757 31.9419 37.3787L32.0763 37.2995C32.4117 37.1027 32.744 36.9431 33.142 37.0022C33.5119 37.0571 33.8557 37.2572 34.1898 37.4197L34.2243 37.4364L35.2567 37.9308C35.1464 37.4875 35.0269 37.0463 34.9022 36.6068C34.659 35.7494 34.3915 34.8993 34.1014 34.0568C33.8304 33.2696 33.5374 32.491 33.2276 31.7185L33.1343 31.4867C33.0079 31.1687 32.8823 30.8219 32.5212 30.724C32.1604 30.6261 31.7465 30.7712 31.4167 30.564C31.3867 30.5452 31.3904 30.4954 31.4268 30.4862L31.6303 30.4346C32.0124 30.3388 32.4603 30.2425 32.8216 30.3356C33.2148 30.4371 33.5401 30.7695 33.7309 31.115C33.943 31.4995 34.0925 31.9296 34.2535 32.3396L34.279 32.4041C34.4637 32.868 34.6414 33.3347 34.8114 33.8043C35.1514 34.7429 35.4609 35.6929 35.741 36.6514C35.8759 37.1134 36.004 37.5776 36.1271 38.0429C36.1625 38.1767 36.2209 38.3389 36.2687 38.5082C36.3236 38.5621 36.3756 38.6222 36.4243 38.6909C36.5051 38.8047 36.4471 38.9382 36.3466 39.0063C36.3427 39.1228 36.317 39.2323 36.2556 39.3262C36.0159 39.6927 35.3821 39.5983 35.4079 39.1055C35.4118 39.0301 35.441 38.9581 35.4851 38.8973L35.4839 38.8874V38.8874L35.4789 38.8693V38.8693C35.3689 38.8162 35.2584 38.757 35.1419 38.6991L34.0584 38.1598V38.1598C33.7446 38.0035 33.3968 37.7622 33.0478 37.7026C32.7225 37.6472 32.3793 37.8913 32.0997 38.0386L32.0816 38.0481C31.4058 38.397 30.735 38.7575 30.0669 39.1209C29.7408 39.2984 29.4189 39.4832 29.094 39.6628C28.8223 39.8129 28.5291 40.0285 28.2238 40.1132C28.0934 40.2154 27.9384 40.2017 27.8139 40.1245C27.8708 40.4794 27.8673 40.8437 27.8848 41.2066C27.9083 41.6918 27.9119 42.1784 27.9196 42.6642L27.9228 42.8464C27.9433 43.9204 27.9543 44.9948 27.9583 46.0691C27.9727 49.8946 27.9308 53.7213 27.921 57.5468C27.916 59.4688 27.8782 61.3925 27.8286 63.3138C27.8076 64.128 27.7637 64.9411 27.7162 65.7541L27.6901 66.1974C27.6348 67.133 27.6022 68.0789 27.4303 69.0018C27.4078 69.1222 27.2056 69.1253 27.1858 69.0018C27.0275 68.0129 27.0187 67.0022 26.9883 66.0016L26.9819 65.8017C26.9453 64.7274 26.928 63.6537 26.9317 62.5789C26.9452 58.7518 27.044 54.9272 27.1247 51.1012C27.1654 49.1789 27.1927 47.2558 27.2558 45.3341C27.2873 44.3726 27.323 43.4117 27.3654 42.4505C27.3843 42.0214 27.4025 41.5927 27.4308 41.1642L27.4436 40.9806C27.4524 40.8607 27.4595 40.7424 27.4681 40.6252C27.0837 40.7666 26.7322 40.5047 26.3864 40.3256C25.9878 40.1191 25.5895 39.9122 25.1908 39.7061L24.7917 39.5003V39.5003L23.9932 39.0899C23.6336 38.905 23.3566 38.7211 22.9731 38.9379C21.5916 39.7187 20.322 40.7576 19.1714 41.8477C18.9508 42.0568 18.4846 42.0006 18.4287 41.6502C18.19 40.1534 18.3352 38.6349 18.4571 37.1335L18.502 36.5761C18.5565 35.9103 18.6158 35.2445 18.6948 34.5815C18.7301 34.2849 18.7653 33.9885 18.8042 33.6924L18.8342 33.4705C18.8829 33.1196 18.9147 32.7708 19.0184 32.4342C18.9857 32.4236 18.9542 32.4061 18.926 32.3792C18.614 32.081 18.7645 31.5636 18.9068 31.2089C19.0474 30.8588 19.2618 30.5533 19.5302 30.2903C19.5887 30.2328 19.6713 30.1959 19.7542 30.194C20.4051 29.7596 21.1191 29.5428 21.8623 29.7799C21.8831 29.6794 21.9044 29.579 21.9268 29.4789L21.9496 29.3788C22.0074 29.1304 22.0289 28.7201 22.2416 28.554ZM28.9124 67.7816C29.1144 67.7257 29.3355 67.7847 29.4835 67.9337C29.6314 68.0828 29.69 68.3055 29.6344 68.509C29.6065 68.6091 29.5562 68.6961 29.4835 68.7699C29.4155 68.8379 29.3361 68.8865 29.2455 68.9156L29.2244 68.922L29.1914 68.9358C29.0902 68.9632 28.9889 68.9632 28.8877 68.9358C28.7909 68.9084 28.7069 68.8591 28.6356 68.7878C28.5648 68.716 28.5158 68.6314 28.4887 68.5338C28.4615 68.4318 28.4615 68.3299 28.4887 68.2279L28.5025 68.1946V68.1946C28.5303 68.0945 28.5806 68.0075 28.6533 67.9337C28.7266 67.8605 28.8129 67.8097 28.9124 67.7816ZM40.905 47.5078C40.9382 47.4695 40.992 47.5186 40.9714 47.5594C40.6568 48.1807 40.3061 48.7975 39.9615 49.403C39.9891 49.5708 40.0165 49.7373 40.048 49.8995C40.1823 50.5911 40.3467 51.2702 40.4539 51.9683C40.8393 54.4778 41.0393 57.0145 41.211 59.5466C41.3832 62.0877 41.4052 64.6299 41.431 67.176C41.4333 67.3967 41.2648 67.6531 41.039 67.6947C40.9356 67.7137 40.8583 67.71 40.7551 67.6947C40.5201 67.6599 40.3731 67.3887 40.3631 67.176C40.2957 65.753 40.205 64.3319 40.1 62.9111C39.9139 60.3922 39.8001 57.8668 39.6498 55.3453L39.5968 54.4641C39.54 53.5092 39.488 52.5536 39.4711 51.5973C39.4598 50.9637 39.4934 50.3303 39.4727 49.6975C39.4536 49.1132 39.3948 48.4779 39.5227 47.9039C39.5274 47.8824 39.5612 47.8769 39.5709 47.8975C39.7039 48.1795 39.7881 48.4859 39.853 48.7988C40.1957 48.3622 40.5446 47.9247 40.905 47.5078ZM18.4601 32.0745C18.5083 32.0709 18.5063 32.1437 18.4601 32.1491C17.7877 32.2277 17.1381 32.5033 16.5032 32.7376L16.4488 32.7576C15.8073 32.992 15.1819 33.2647 14.58 33.5896C13.4033 34.225 12.3227 35.0443 11.3674 35.9822C7.55299 39.7262 5.81468 45.1252 4.54093 50.1989C3.83322 53.0178 3.32995 55.8843 3.00375 58.7729C2.84245 60.2014 2.72843 61.6354 2.66195 63.0716C2.62792 63.8077 2.60645 64.5444 2.5975 65.2812C2.59288 65.6586 2.59153 66.0362 2.59198 66.4136C2.5922 66.5865 2.62285 66.8043 2.57693 66.9722C2.53434 67.1278 2.41423 67.2648 2.32538 67.3944C2.22009 67.5482 2.03085 67.5401 1.92409 67.3944L1.88472 67.3414C1.77086 67.1892 1.65945 67.0438 1.64319 66.8449C1.62578 66.6318 1.63806 66.412 1.63727 66.1979C1.63547 65.7665 1.64076 65.3351 1.64933 64.9038C1.66584 64.0772 1.69817 63.2509 1.74623 62.4255C1.84381 60.7505 2.00443 59.0789 2.2344 57.417C2.64319 54.4631 3.25592 51.5374 4.05851 48.6667C4.81569 45.9586 5.71271 43.2584 6.99057 40.7499C8.17705 38.4208 9.73355 36.2541 11.7874 34.6264C12.7425 33.8694 13.7822 33.2386 14.9032 32.7635C15.4685 32.5239 16.0622 32.3283 16.666 32.2168C17.2631 32.1065 17.8576 32.1219 18.4601 32.0745ZM29.0281 62.9949C29.1348 62.9941 29.2537 63.0177 29.3452 63.0771L29.4675 63.1723V63.1723C29.5006 63.2151 29.5335 63.2581 29.5664 63.3013C29.6428 63.4016 29.653 63.564 29.637 63.6835C29.6334 63.7634 29.6099 63.8376 29.5664 63.9065L29.4733 64.0279V64.0279C29.3839 64.1014 29.3093 64.1538 29.2009 64.1891C29.1443 64.2076 29.0898 64.2115 29.0354 64.2086L29.0173 64.2075L29.0281 64.209L29.0091 64.2068V64.2068C28.9914 64.2053 28.9737 64.2033 28.9559 64.2009C28.9437 64.1994 28.9316 64.1985 28.9195 64.1968C28.9078 64.1958 28.8965 64.1953 28.8848 64.1964C28.7471 64.2095 28.6086 64.1308 28.5109 64.0405C28.4228 63.959 28.3438 63.7863 28.3561 63.6639L28.3613 63.6128C28.3706 63.5264 28.3782 63.4925 28.4145 63.4058C28.4498 63.3215 28.4991 63.2471 28.5662 63.1842C28.6946 63.0638 28.8519 62.9961 29.0281 62.9949ZM28.6019 56.6794C28.7847 56.4788 29.0985 56.464 29.3252 56.5853C29.3804 56.615 29.4311 56.6625 29.4798 56.7021C29.6024 56.802 29.6506 56.9821 29.6574 57.134C29.6641 57.2841 29.5855 57.4623 29.4798 57.566L29.4541 57.591V57.591C29.391 57.6528 29.3005 57.7066 29.2122 57.723C29.0697 57.7494 28.95 57.7486 28.8174 57.6922C28.7034 57.6437 28.6051 57.5658 28.5383 57.4602L28.5274 57.4423C28.5229 57.4349 28.5185 57.4273 28.5145 57.4196L28.5086 57.408C28.3816 57.162 28.4157 56.8836 28.6019 56.6794ZM28.6966 50.3306C28.779 50.3046 28.8614 50.3009 28.9438 50.3195C28.9997 50.3196 29.0519 50.3339 29.1002 50.3621C29.1528 50.3769 29.1984 50.4037 29.237 50.4424C29.2836 50.4701 29.3207 50.5075 29.3482 50.5544C29.4031 50.6147 29.44 50.6855 29.4592 50.7668L29.4813 50.9328L29.4592 51.0988L29.3967 51.248V51.248C29.3795 51.2706 29.3622 51.2932 29.3448 51.3157C29.3171 51.3627 29.28 51.4002 29.2333 51.428C29.2029 51.4584 29.1681 51.4812 29.1291 51.497C28.9911 51.5966 28.8072 51.6292 28.6437 51.5838C28.5466 51.5564 28.4622 51.5069 28.3907 51.4353C28.3197 51.3632 28.2705 51.2783 28.2433 51.1805L28.2321 51.1024C28.2177 50.9976 28.2154 50.9396 28.2449 50.8064C28.2578 50.7479 28.2952 50.6653 28.3148 50.6305C28.3987 50.482 28.5356 50.3803 28.6966 50.3306ZM35.8533 45.7631C36.09 45.7615 36.3267 45.7619 36.5633 45.7646L36.7408 45.7669C37.038 45.7717 37.2925 45.7408 37.5261 45.9485C37.6957 46.0992 37.621 46.3521 37.4601 46.4657C37.2162 46.6376 36.9102 46.5511 36.6299 46.5322C36.3342 46.5122 36.0384 46.4956 35.7424 46.4822C35.1692 46.4564 34.5959 46.44 34.0222 46.4374C33.4497 46.435 32.8764 46.4404 32.3041 46.4497C31.7216 46.4593 31.1152 46.5139 30.5361 46.4532C30.4565 46.4448 30.4386 46.3395 30.5171 46.312C31.0629 46.1219 31.6768 46.0602 32.2487 45.9875C32.8386 45.9125 33.4286 45.8593 34.0222 45.8249C34.6319 45.7896 35.2426 45.7675 35.8533 45.7631ZM28.6955 43.8952L28.715 43.8956C28.8192 43.8959 28.9167 43.9206 29.0076 43.9697L29.027 43.9806L29.152 44.0778C29.2286 44.1556 29.2816 44.2471 29.3109 44.3526L29.333 44.5181V44.5181C29.3363 44.6038 29.3185 44.6837 29.2798 44.7579C29.2549 44.8351 29.2123 44.9018 29.152 44.9582C29.096 45.0189 29.0297 45.0618 28.9532 45.0869C28.8851 45.1229 28.8123 45.1409 28.7346 45.1409L28.715 45.1406C28.6035 45.1402 28.4995 45.1119 28.4032 45.0556L28.2781 44.9582V44.9582C28.2015 44.8805 28.1485 44.789 28.1192 44.6835L28.0971 44.5181V44.5181C28.0939 44.4324 28.1116 44.3523 28.1504 44.2782C28.1753 44.201 28.2178 44.1343 28.2781 44.0778C28.3341 44.0172 28.4003 43.9743 28.477 43.9492C28.545 43.9132 28.6178 43.8952 28.6955 43.8952V43.8952ZM30.5275 29.2721C30.6607 29.0778 30.902 29.2505 30.8674 29.4067C30.8766 29.8454 30.8988 30.271 30.9979 30.7007C31.0433 30.8974 31.1027 31.0943 31.1944 31.2745L31.2329 31.3504C31.3515 31.5865 31.4436 31.8092 31.2838 32.0683C31.2085 32.1904 31.0724 32.2821 30.9248 32.2757C30.2705 32.2472 30.1806 31.3297 30.1408 30.8176C30.0998 30.2901 30.2273 29.7103 30.5275 29.2721Z" fill="black"/>
<path fill-rule="evenodd" clip-rule="evenodd" d="M26.7494 5.54688C29.2717 5.54688 32.2981 6.77864 32.5554 6.80328L32.5623 6.80365C32.6977 6.80365 33.2267 7.20961 34.1492 8.02152L33.15 9.98478L33.2308 10.0626C33.6178 10.4363 33.9482 10.7769 34.2089 11.0455C36.338 13.238 36.7207 21.8466 36.2189 24.8487C35.7172 27.8508 34.7878 30.7884 30.4611 30.7884C26.1345 30.7884 21.3209 28.1678 20.5795 27.3517C20.0851 26.8077 19.5299 26.547 18.9137 26.5698C18.8883 26.5376 18.8632 26.5055 18.8383 26.4735L18.7476 26.4605C17.8948 26.3361 17.2838 26.1687 16.9145 25.9582C16.1932 25.5471 15.4004 23.3861 15.4004 22.91C15.4004 22.4387 14.2166 19.0102 14.1929 18.6474L14.1926 18.6374C14.1926 18.3341 12.646 16.9398 12.646 16.497C12.646 16.0543 12.3343 16.0811 12.646 14.5208L12.7366 14.0624C13.0683 12.4012 13.7176 9.65037 16.1932 8.45506C18.9137 7.14153 24.2015 5.54688 26.7494 5.54688Z" fill="#F5F4F3"/>
<path fill-rule="evenodd" clip-rule="evenodd" d="M15.7733 8.39346C17.1301 6.94279 24.8327 4.69895 28.7297 5.17459L28.8466 5.18984C29.1576 5.22956 29.4641 5.28972 29.7665 5.37144C30.7442 5.60145 31.7541 5.94974 32.562 6.5315C33.2364 7.00741 35.3639 7.78463 34.7368 9.02964C34.9694 9.47338 35.0561 10.0216 34.899 10.4586C34.8792 10.6096 34.833 10.7486 34.7739 10.8928C35.2706 11.6312 35.6639 12.4662 35.9823 13.2605C36.5386 15.2593 36.8848 17.3395 36.9356 19.3788C37.1042 23.2534 36.6825 27.8815 33.3325 30.387C31.3088 31.9746 28.1388 32.0279 25.8646 30.0595C25.7355 29.9056 25.1286 29.4904 25.3311 29.4176C25.3914 29.4817 25.4534 29.5442 25.5165 29.6054C25.5136 29.5986 25.513 29.5918 25.5142 29.5845L25.4549 29.5303C25.3431 29.4262 25.1983 29.2751 25.3632 29.3047C25.3705 29.3132 25.3784 29.3206 25.3863 29.3291C25.4212 29.3502 25.4476 29.3685 25.4681 29.3846L25.4787 29.3931L25.4754 29.3897C25.3804 29.2877 25.3235 29.1836 25.4655 29.2501L25.4843 29.2593C25.5474 29.3262 25.6116 29.3904 25.677 29.4528C25.6759 29.4454 25.677 29.438 25.681 29.4301L25.62 29.3708C25.5605 29.3121 25.5696 29.3118 25.5987 29.2644C25.4723 29.0859 25.7083 29.1919 25.7248 29.2615C25.8725 29.2263 26.0021 29.5056 26.0972 29.5396C30.2662 32.7682 36.3162 29.9035 36.2182 20.9069L36.2167 20.7309C36.188 17.8542 35.9477 14.8975 34.7665 12.2934C34.6517 12.0426 34.5232 11.7985 34.3818 11.5625C34.2843 11.3854 34.1801 11.2129 34.068 11.0449C33.7541 11.0193 33.4443 10.9615 33.139 10.8718C33.0341 10.8451 32.9305 10.8156 32.8269 10.781C31.3125 10.8642 29.8319 10.9547 28.3133 11.0405L27.839 11.0703C26.5525 11.1536 25.2221 11.287 24.184 12.0885C23.1654 12.8183 23.1608 14.2572 22.2888 15.0583C21.0455 15.9084 21.0364 16.675 20.797 17.9277C20.8147 18.872 21.4647 20.2441 20.2719 20.6416C20.4731 20.9306 20.1926 20.7917 20.1705 20.6904C20.1683 20.6909 20.166 20.6915 20.1643 20.6915C20.3437 21.0273 20.0801 20.8158 20.0567 20.708C20.0427 20.704 20.0286 20.6938 20.0145 20.6796C20.1952 20.9738 19.9031 20.7678 19.9204 20.7142C19.5713 20.1736 18.8527 20.0897 18.3463 20.2329C18.3401 20.2522 18.3176 20.2539 18.3035 20.2437C16.1499 20.7139 16.7055 25.2049 18.9125 24.7708C19.007 24.7514 19.0047 24.7971 19.0235 24.8014C18.9725 24.6666 19.1162 24.7215 19.1147 24.7498L19.1235 24.7494C19.1304 24.7488 19.1276 24.748 19.1327 24.7498C19.0834 24.474 19.3608 24.8736 19.3389 24.89C19.3474 24.8849 19.357 24.882 19.3655 24.8809L19.3559 24.8547C19.3099 24.7312 19.3138 24.7825 19.3141 24.7118C19.2796 24.6243 19.277 24.6626 19.2851 24.6056C19.4067 24.5107 19.4426 24.7985 19.4832 24.8196C19.4136 24.722 19.4689 24.6423 19.5345 24.6953C20.0316 25.7484 20.6736 26.738 21.5034 27.5176C21.5942 27.5896 21.686 27.6606 21.7812 27.7275C22.1341 28.0372 22.6756 28.2364 23.006 28.5107C23.006 28.5153 23.0038 28.5209 23.0004 28.5266L23.008 28.5335V28.5335L23.0156 28.5408L23.1305 28.5964C23.1643 28.6254 23.1948 28.6577 23.2217 28.6935C23.2505 28.7269 23.2758 28.7638 23.2973 28.803C23.308 28.8507 23.2843 28.8705 23.2393 28.8501C23.2195 28.8433 23.1998 28.8353 23.1801 28.828C23.1812 28.8297 23.1817 28.8308 23.1829 28.8319C23.1894 28.8418 23.2332 28.944 23.1827 28.9273L23.1767 28.925C23.1491 28.9148 23.1215 28.9034 23.0945 28.8927C23.1266 28.9329 23.1558 28.9766 23.1817 29.0135C23.2094 29.0425 23.2263 29.0765 23.2331 29.1151C23.2319 29.1367 23.2201 29.1458 23.1987 29.1429C23.166 29.1321 23.1339 29.1208 23.1017 29.1089L23.1109 29.1265C23.1336 29.1715 23.1659 29.247 23.1086 29.2218C23.0595 29.2065 23.0122 29.1889 22.9649 29.1696C22.9609 29.1775 22.9531 29.1804 22.9373 29.173C22.7869 29.1191 22.6415 29.0533 22.5024 28.9755C22.3801 28.8858 22.2567 28.7979 22.1339 28.7088C22.0184 28.639 21.9068 28.5612 21.8004 28.4738C21.0879 28.0103 20.4642 27.4214 19.9694 26.7656C19.1419 27.4875 17.4873 26.7978 16.4638 26.2327C15.5585 25.7276 15.2027 24.7937 15.1107 23.7868C14.9194 22.4313 13.8197 21.9673 13.8962 18.9929C13.8945 18.9935 13.8927 18.9935 13.8905 18.9935C13.8505 18.9816 13.8117 18.9657 13.775 18.9453C13.7373 18.9271 13.7018 18.9055 13.6685 18.8794L13.6274 18.8221V18.8221C13.606 18.8102 13.5869 18.7977 13.5722 18.7852L13.5646 18.7951C13.5406 18.8243 13.5567 18.7803 13.5581 18.7716L13.4867 18.6737C13.3173 18.4407 13.1314 18.1793 12.9801 17.9703L12.9753 17.9788C12.9719 17.9852 12.9701 17.9898 12.9717 17.9918C12.6114 17.4704 12.2726 16.8406 12.1784 16.2308C12.0673 15.7612 12.1107 15.2772 12.2077 14.8421C12.6234 13.3186 13.9852 9.87109 15.7733 8.39346ZM25.5506 29.4626L25.5281 29.4424L25.5479 29.4674C25.5583 29.4804 25.569 29.492 25.5863 29.5039C25.5852 29.4999 25.5852 29.4959 25.5857 29.4914C25.5742 29.4825 25.5624 29.4729 25.5506 29.4626ZM28.7125 5.94009C26.0697 5.71121 23.4705 6.29768 20.9487 7.00758L20.7747 7.05795C19.3408 7.47011 17.8246 7.84099 16.6128 8.72318C14.9198 10.0294 14.0455 12.1074 13.2826 14.026C12.6164 15.4515 12.957 17.0589 13.9609 18.0543C14.0654 17.0651 14.2434 16.105 14.5217 15.1525C14.5798 15.0037 14.5359 14.9549 14.6611 14.9355C14.8501 17.5023 13.9189 19.3987 15.7617 22.4407C16.5614 23.876 15.6357 24.9263 17.8937 25.6816L17.9549 25.7051C18.4253 25.8839 18.939 26.0251 19.3998 25.9251L19.3585 25.8575C19.3164 25.7878 19.3036 25.754 19.3648 25.7242C19.3632 25.7208 19.361 25.7174 19.3587 25.7134C19.3091 25.6192 19.2612 25.5239 19.2156 25.4274C19.197 25.4337 19.1784 25.4382 19.1592 25.4433C19.1717 25.4666 19.1733 25.4898 19.1384 25.4978C19.0143 25.5407 18.8868 25.5579 18.7563 25.5498L18.7283 25.5477C18.5808 25.5386 18.4879 25.5116 18.4048 25.4864C18.3773 25.4819 18.3497 25.4773 18.3226 25.4717C18.0553 25.412 17.7723 25.2601 17.5891 25.1096C15.5014 23.9151 15.7171 19.8489 18.2905 19.4645C18.3433 16.9044 19.5522 12.5851 21.5584 10.1455C23.3718 7.90153 28.3224 6.92893 31.7667 7.27188C31.8169 7.28862 31.8671 7.30553 31.9173 7.32261C32.4487 7.37017 32.9551 7.60864 33.4869 7.71942C33.1051 7.43118 32.6719 7.23919 32.2258 7.07603C31.3369 6.52832 30.3179 6.23196 29.3334 6.02295C29.1294 5.97244 28.9227 5.94463 28.7125 5.94009ZM18.1728 21.5212C18.3111 21.4455 18.2953 21.5186 18.3271 21.4974C19.3224 21.4156 20.3956 22.2934 20.9519 23.0251C20.908 23.0711 20.7891 22.9349 20.7682 22.9133C20.7654 22.9161 20.762 22.9184 20.7587 22.9196L20.7742 22.9416C20.9996 23.2675 20.5526 22.884 20.5108 22.8049C20.5035 22.8089 20.4961 22.8112 20.4877 22.8095C20.5231 22.8445 20.6313 22.9358 20.6499 23.0007L20.6786 23.0248C20.9492 23.2582 20.9267 23.4337 20.6196 23.1023C20.6268 23.1176 20.6297 23.1318 20.6246 23.1432L20.6352 23.1503C20.7862 23.2566 20.9104 23.553 20.5947 23.2487C20.6276 23.471 20.2819 23.0414 20.2708 23.0444C19.6726 22.5714 18.7918 22.1114 18.0415 22.0496L18.0157 22.0466C17.878 22.0287 17.8129 21.9876 17.8612 21.8969C17.6916 21.8563 17.7313 21.7722 17.8116 21.7749C17.692 21.6957 17.7997 21.6199 17.8691 21.6495C17.8214 21.5164 18.0128 21.605 18.0302 21.5865C18.1295 21.4322 18.1563 21.5609 18.1728 21.5212ZM16.0866 13.2724C16.5646 13.096 17.9766 13.624 17.8636 14.3233C17.7964 14.4838 17.5747 14.5758 17.419 14.4852L17.2156 14.3477C16.8618 14.109 16.5427 13.8997 16.1628 13.6915C15.9561 13.5881 15.8671 13.3687 16.0866 13.2724ZM18.8063 12.2332L18.6217 12.1122C17.6254 11.4553 16.217 10.4601 18.7147 11.4898C18.9994 11.6128 19.3777 11.6855 19.533 11.9586C19.777 12.462 19.1348 12.4958 18.8063 12.2332ZM18.9182 9.28614C18.8383 8.98053 19.833 9.33915 20.1226 9.43369L20.1667 9.45047C20.4484 9.55621 20.7713 9.65429 20.9398 9.89917C21.1372 10.2375 20.7377 10.3076 20.4902 10.1548C19.9827 9.82074 19.4264 9.5687 18.9182 9.28614ZM21.4478 7.86253C20.8879 7.24659 22.3864 7.83664 22.6109 8.00043L22.6173 8.00526C22.7848 8.12405 22.7508 8.37988 22.5935 8.45502C22.1457 8.46359 21.8163 8.08767 21.4478 7.86253ZM23.9958 7.18769C23.1056 6.54328 24.2782 6.84979 24.6855 7.10234C24.963 7.34892 24.6771 7.76519 23.9958 7.18769Z" fill="black"/>
<path fill-rule="evenodd" clip-rule="evenodd" d="M27.1745 23.3537C28.1402 23.2356 29.0763 23.5335 30.0204 23.6836C30.5189 23.7628 31.018 23.822 31.5224 23.844C31.6239 23.8484 31.7254 23.851 31.827 23.8531C31.8364 23.7631 31.8865 23.6804 31.9948 23.6309C32.217 23.5295 32.3948 23.4837 32.6387 23.4935C32.862 23.5024 33.0861 23.5255 33.306 23.566C33.7052 23.6398 34.1063 23.8071 34.3983 24.0978C35.0742 24.7705 34.9714 25.851 34.4491 26.5837C33.3701 28.0977 31.4008 28.1679 29.7142 28.1482L29.5585 28.1461C28.0228 28.124 25.8256 28.3547 25.1279 26.5946C24.8713 25.9474 24.907 25.1971 25.2211 24.5764C25.5958 23.8359 26.3845 23.4503 27.1745 23.3537ZM31.9716 25.8745L31.9578 25.8751C31.2497 25.9026 30.5418 25.9219 29.8334 25.9345C29.8545 26.1178 29.8762 26.3011 29.9009 26.484C29.9203 26.6279 29.9411 26.7716 29.9628 26.9152C29.9719 26.976 30.0055 27.0704 29.996 27.1306L29.9926 27.1544V27.1544C30.029 27.171 30.062 27.1977 30.0866 27.2364C30.0951 27.2498 30.1013 27.2633 30.1075 27.2768C30.6575 27.2811 31.2494 27.2704 31.8101 27.1697L31.8112 27.1574V27.1574C31.8214 27.0853 31.8512 27.0367 31.8908 27.0034C31.9302 26.7733 31.9266 26.5281 31.9418 26.2998C31.9513 26.158 31.9616 26.0163 31.9716 25.8745ZM29.2923 25.9442C28.7819 25.953 28.2713 25.9597 27.7611 25.9535L27.5295 25.9498V25.9498C27.5784 26.2142 27.6316 26.4777 27.6759 26.7438C27.722 27.0211 27.4797 27.1974 27.2699 27.1903C27.2935 27.1942 27.317 27.1982 27.3405 27.2016C27.9958 27.2949 28.6763 27.2702 29.3413 27.2694C29.3056 27.0591 29.3201 26.8217 29.3147 26.6461L29.3137 26.6189C29.3035 26.3939 29.2964 26.1691 29.2923 25.9442ZM25.8257 25.8957C25.8434 26.0332 25.8779 26.1677 25.9294 26.293C26.1473 26.8221 26.6467 27.0691 27.1751 27.1731C27.0834 27.1412 27.0106 27.0646 26.9923 26.9333C26.9464 26.607 26.93 26.2752 26.9287 25.9439C26.5605 25.9404 26.1897 25.9325 25.8257 25.8957ZM33.8921 25.7827C33.6299 25.8451 33.3252 25.8165 33.068 25.8283C32.827 25.8393 32.5858 25.8489 32.3448 25.8587C32.3562 26.0245 32.3673 26.1902 32.3793 26.3558C32.3948 26.5699 32.3963 26.7961 32.437 27.0093C32.922 26.8426 33.3566 26.5751 33.6827 26.1475C33.7639 26.041 33.8367 25.916 33.8921 25.7827ZM27.0637 24.2219C26.6272 24.326 26.2141 24.546 25.9921 24.9483C25.8603 25.187 25.8024 25.47 25.8135 25.7488C26.1824 25.7056 26.5577 25.6892 26.9311 25.6756C26.9323 25.6078 26.9339 25.5402 26.9359 25.4727L26.9417 25.2996C26.9519 24.9695 26.957 24.555 27.0637 24.2219ZM29.3228 24.2622L29.1307 24.2405C28.597 24.1792 28.0636 24.1149 27.5299 24.1518C27.4526 24.1571 27.3742 24.1656 27.2956 24.1772C27.3899 24.5201 27.382 24.9228 27.4214 25.2623C27.4367 25.3935 27.4559 25.5237 27.4772 25.6534L27.5698 25.649V25.649C28.1425 25.6177 28.7157 25.5985 29.2888 25.5756C29.2888 25.4672 29.2894 25.3588 29.2911 25.2502L29.2932 25.1417C29.2997 24.8646 29.282 24.5524 29.3228 24.2622ZM32.0028 24.2182C31.4438 24.3091 30.8661 24.3284 30.317 24.3291C30.0977 24.3294 29.8786 24.3158 29.6595 24.2962C29.6738 24.4137 29.6812 24.5326 29.6919 24.6485C29.7135 24.8826 29.7383 25.1164 29.7651 25.35L29.7891 25.5544V25.5544C30.4936 25.5222 31.198 25.4874 31.9023 25.4514L32.0016 25.446V25.446L32.0295 25.0532C32.0485 24.7913 32.0693 24.5295 32.0988 24.2688L32.0767 24.2607V24.2607C32.0507 24.25 32.0261 24.2352 32.0028 24.2182ZM32.2455 24.3157C32.2763 24.686 32.2934 25.0579 32.316 25.4288L32.7803 25.4038C32.8577 25.3996 32.9351 25.3953 33.0124 25.3908C33.3133 25.3733 33.6999 25.2815 33.9973 25.3671C34.0201 25.0947 33.9428 24.8294 33.6987 24.6464C33.2703 24.325 32.7248 24.4394 32.2455 24.3157ZM30.6592 21.0052C31.3506 20.6063 33.0853 20.1987 33.1951 21.452C33.2457 22.0288 32.82 22.5067 32.3229 22.7199L32.3043 22.7278C31.8381 22.9209 31.0118 23.1389 30.6083 22.7203C30.2726 22.3718 30.7179 21.747 31.1351 22.0325C31.3496 22.1791 31.8009 22.0711 32.0402 22.0013L32.0551 21.9969C32.3133 21.9205 32.6576 21.6758 32.5508 21.3556C32.4563 21.0723 32.0543 21.0205 31.8025 21.0113C31.4267 20.9977 31.061 21.0857 30.6886 21.1143C30.6296 21.1188 30.6114 21.0328 30.6592 21.0052ZM33.5231 18.9898C34.4615 18.9455 35.0452 19.9776 34.8295 20.8233C34.7922 20.9692 34.6301 21.1124 34.4737 21.096L34.4343 21.0923C34.4143 21.0904 34.3942 21.0879 34.3757 21.0827C34.2272 21.0413 34.0941 20.8857 34.1049 20.7244L34.1078 20.6774C34.1297 20.2779 34.0867 19.8177 33.6154 19.7209C33.2157 19.6388 32.9925 20.0264 32.9878 20.3831C32.9869 20.4465 32.9162 20.4907 32.8606 20.4566C32.5717 20.2795 32.5216 19.9271 32.632 19.6237C32.7719 19.2392 33.122 19.0087 33.5231 18.9898ZM26.5596 19.2111C27.2425 18.9816 27.9792 19.3483 28.3099 19.9565C28.4259 19.9903 28.5417 20.0803 28.5256 20.2182C28.5023 20.4167 28.4673 20.5417 28.3307 20.6922C28.1171 20.9275 27.717 20.8072 27.6283 20.5175L27.6245 20.5044C27.5237 20.1299 27.1144 19.8828 26.7416 20.0139C26.3061 20.167 26.3188 20.6303 26.0133 20.9002C25.9774 20.932 25.9344 20.937 25.8913 20.9161C25.5669 20.7581 25.6252 20.2828 25.7408 20.0107C25.8926 19.6537 26.1874 19.3362 26.5596 19.2111ZM25.6296 17.1223C26.183 16.5535 27.6259 16.0031 28.0044 17.0534C28.0765 17.2535 27.923 17.5232 27.7162 17.5647C27.3777 17.6326 27.0773 17.4845 26.7409 17.5111C26.4686 17.5327 26.1846 17.6243 25.967 17.7943C25.364 18.2648 25.2314 19.0608 24.8113 19.6597C24.7908 19.6889 24.7511 19.6767 24.7473 19.6423C24.6517 18.7703 25.0235 17.7452 25.6296 17.1223ZM32.8462 16.5624C33.2134 16.4317 33.6293 16.4429 33.9984 16.5588C34.3702 16.6756 34.7116 16.8974 34.9746 17.1871C35.0939 17.3187 35.2043 17.4639 35.2929 17.6184C35.3399 17.7003 35.3894 17.8695 35.4429 17.9702C35.7321 18.1384 35.8558 18.5218 35.5968 18.7945L35.5851 18.8065L35.5505 18.8411C35.4112 18.9799 35.2013 19.0401 35.0113 18.9846C34.5861 18.8607 34.5344 18.5233 34.3872 18.1652C34.29 17.9287 34.1234 17.7194 33.9214 17.5656C33.444 17.2024 32.6613 17.0867 32.0866 17.2579C32.056 17.267 32.0201 17.2277 32.0419 17.1992C32.1508 17.0571 32.2136 16.9405 32.3594 16.8259C32.5074 16.7095 32.6689 16.6255 32.8462 16.5624Z" fill="black"/>
<path fill-rule="evenodd" clip-rule="evenodd" d="M26.5197 26.7996C26.9758 25.7231 27.9713 24.932 29.1175 24.6428C29.9592 24.4309 30.8426 24.4377 31.7006 24.5218C32.1501 24.5655 32.6323 24.6014 33.056 24.7695C33.4177 24.9132 33.7126 25.1848 33.9342 25.5036C34.1981 25.8813 34.3776 26.3136 34.5036 26.7568C34.5215 26.8198 34.5383 26.8832 34.554 26.947C34.4992 27.2814 34.3829 27.566 34.0755 27.7762C33.7755 27.9814 33.4175 28.0654 33.0607 28.0952C33.0257 28.0783 32.9919 28.0609 32.9609 28.0431C32.4048 27.7224 32.0135 26.9647 31.3116 27.0672C30.6853 27.1588 30.273 27.9526 29.9006 28.4181C28.705 28.5585 27.5103 28.1966 26.5375 27.5079C26.4881 27.2722 26.4852 27.0345 26.5197 26.7996M35.3666 25.983C35.271 25.7126 35.1505 25.4508 35.0077 25.2041C34.5357 24.3883 33.811 23.7384 32.9508 23.3668C30.9157 22.4891 28.2826 23.1078 26.6391 24.5474C26.0777 25.0395 25.5101 25.7626 25.3384 26.5405C25.2872 26.5507 25.2388 26.5776 25.199 26.6154C24.0116 25.8624 22.7888 25.1379 21.832 24.094C21.1372 23.3356 20.6539 22.438 20.3579 21.4517C20.3337 21.3705 20.2037 21.3824 20.2077 21.4722C20.2088 21.4932 20.2099 21.5142 20.2111 21.5352C20.1987 21.4965 20.1402 21.5164 20.1357 21.5539C19.9764 22.7521 19.7773 24.0224 19.9607 25.2268C20.0704 25.9455 20.3945 26.4716 20.8277 27.0398C21.2919 27.6487 21.8174 28.2151 22.3547 28.7583C22.6956 29.1031 23.0518 29.5008 23.4693 29.7536C23.9548 30.0473 24.5056 30.2707 25.0238 30.4973C25.551 30.7285 26.0861 30.9421 26.6313 31.1273C27.7211 31.4989 28.8475 31.7557 29.9936 31.8682C30.9112 31.9579 31.96 32.0557 32.8394 31.708C33.5134 31.4415 34.0575 30.9598 34.489 30.3803C34.9588 29.7491 35.3302 29.0301 35.5355 28.272C35.7488 27.4844 35.4116 26.11 35.3666 25.983" fill="black"/>
<path fill-rule="evenodd" clip-rule="evenodd" d="M37.5262 19.4836C36.9891 23.1434 33.2395 23.5482 32.5734 19.9148C32.6803 19.8677 32.7572 19.7748 32.7411 19.5946C32.7374 18.8028 32.9814 17.9659 33.6904 17.5256C34.4232 17.0713 35.2807 17.0262 36.1286 17.0377C37.7468 16.9988 37.7127 18.3613 37.5262 19.4836M31.9864 17.8919C31.4785 17.8703 30.8361 17.8884 30.3811 18.2C30.2561 17.8608 29.9311 17.4985 29.6028 17.3048C30.8232 17.3408 32.0794 17.2198 33.3089 17.1259C33.0146 17.328 32.7408 17.6316 32.5628 17.9826C32.3977 17.8939 32.1612 17.9022 31.9864 17.8919M29.7479 19.8716C28.3398 24.7543 24.8248 22.6261 24.4416 22.0003C23.7504 20.9649 23.6203 18.4477 24.2224 17.7747C25.0843 17.1661 26.3044 17.3227 27.3225 17.3078C29.193 17.3332 30.5215 17.8969 29.7479 19.8716M39.1889 17.6259C38.8063 17.5755 38.3975 17.5653 38.0417 17.735C37.9322 17.2661 37.5884 16.874 37.2002 16.7015C37.1532 16.6422 37.1602 16.6103 36.9997 16.6192C36.0141 16.3208 34.9112 16.4787 33.964 16.7847C32.4681 16.9116 30.8987 17.0116 29.3903 17.1865C27.9772 16.5472 23.7128 16.4535 23.4478 18.0291C23.1144 17.9789 22.5467 17.7146 22.2666 18.0731C20.2119 17.7222 18.0888 18.2099 16.0252 18.427C15.5057 18.5234 15.2382 19.5618 15.8278 19.5477C16.1593 19.457 15.8176 18.901 16.264 18.8592C18.255 18.6401 20.2025 18.3294 22.214 18.293C22.144 18.6429 23.5443 18.6656 23.565 18.4613C23.568 18.4629 23.5712 18.4639 23.5742 18.4652C23.2282 19.7643 23.5405 21.6338 24.1659 22.4393C25.042 23.4941 27.2417 23.7967 28.2171 23.1181C29.4753 22.4917 30.7842 19.3476 30.4166 18.303C31.0838 18.0899 31.7435 18.1539 32.436 18.2624C32.2775 18.7135 32.0038 19.824 32.3975 19.9203C32.3252 22.1251 34.3172 23.5009 36.1535 22.5964C37.7428 21.8448 38.2986 19.4659 38.1042 18.022C38.302 18.4071 39.9633 17.9878 39.1889 17.6259" fill="black"/>
</g>
<defs>
<clipPath id="clip0_2101_16469">
<rect width="48" height="48" rx="16" fill="white"/>
</clipPath>
</defs>
</svg>
