<svg width="48" height="48" viewBox="0 0 48 48" fill="none" xmlns="http://www.w3.org/2000/svg">
<g clip-path="url(#clip0_2101_16482)">
<rect width="48" height="48" rx="16" fill="#E1D6CC"/>
<path fill-rule="evenodd" clip-rule="evenodd" d="M40.2877 40.8747C39.7966 38.9786 39.345 38.1746 38.4727 37.5156C37.6568 36.8991 36.4657 36.3814 34.7278 36.0032C32.9177 35.6881 32.8664 34.7515 32.4125 33.2461C32.2801 32.7936 31.624 32.6731 31.3408 32.9993C31.3009 32.9564 31.2593 32.9172 31.2162 32.8816C31.2547 32.6658 30.9391 32.0472 30.9496 31.8407C31.0597 29.6858 30.3517 28.6037 28.5847 28.2014C28.2004 28.1139 25.5901 28.0624 25.2154 28.1655C23.5773 28.6164 21.9648 30.048 22.2115 31.7725C21.6973 32.4415 21.1941 32.8499 20.4008 33.0654C18.6354 33.2886 16.8701 33.487 15.1042 33.6569C11.6475 34.1966 8.40659 36.0182 6.19149 38.6748C5.98719 38.92 5.92816 39.2529 6.10848 39.5144C5.96723 40.1167 5.17212 41.5777 5.79774 41.9907C4.76895 44.4403 2.40187 49.1751 2.39743 50.5277C2.37878 56.2104 2.99535 63.607 8.62785 66.7517C8.85336 66.9725 8.88563 67.2167 8.98327 67.5451C9.2309 68.5796 10.1302 69.319 11.1146 69.2586C15.9636 69.3659 20.6602 68.777 25.5093 68.7484C27.6478 68.7359 30.2195 69.0536 32.0772 69.2654C33.9349 69.4771 35.8101 69.2898 37.5928 68.7484C37.7431 68.9841 38.0471 69.1213 38.3554 69.0536C40.2035 68.6881 41.698 67.5543 42.9996 66.315C43.3974 65.5946 44.9508 63.5421 44.3334 62.8276C44.8931 60.4719 44.864 57.9406 43.8694 55.6974C44.0104 55.2862 43.7534 54.8343 43.8694 54.4097C43.9533 54.1024 44.1683 53.9753 44.2765 53.671C44.4288 53.2428 44.2632 52.6684 44.0917 52.2315C44.0215 52.0137 44.221 51.7793 44.2765 51.5571C44.5396 50.509 43.9372 50.6014 43.503 49.9007C43.5094 49.8985 43.6224 49.3983 43.6218 49.4008C43.6883 49.0437 43.5218 48.5862 43.3765 48.2881C43.2783 48.0866 43.0679 47.9605 42.8589 47.9837C43.0694 47.2723 43.3356 46.6803 43.6218 45.9949C44.1281 44.7868 44.7689 43.6299 45.4959 42.5363C45.7936 42.0886 45.3937 41.5698 44.912 41.5393C43.3527 41.4406 41.8104 41.2171 40.2877 40.8747Z" fill="#F5F4F3"/>
<path fill-rule="evenodd" clip-rule="evenodd" d="M35.7369 50.0108C35.1132 49.7673 34.4417 49.6328 33.7667 49.5805C34.1301 49.5171 34.4946 49.456 34.862 49.4246C35.1183 49.4027 35.356 49.4049 35.5487 49.5985C35.6772 49.7275 35.7374 49.8936 35.822 50.0462C35.7943 50.0338 35.7656 50.022 35.7369 50.0108ZM42.431 47.7343C41.4096 47.786 40.387 48.0278 39.4631 48.4658C39.0851 48.6454 38.7425 48.9045 38.6422 49.3309C38.5915 49.5486 38.6039 49.7736 38.6309 49.9935C38.6512 50.16 38.6563 50.3727 38.8017 50.4854C38.8265 50.5045 38.8529 50.5191 38.8805 50.5297C38.5397 50.6829 38.2151 50.8669 37.9267 51.0565C37.6631 51.2298 37.3921 51.4969 37.2704 51.7981C37.2603 51.7639 37.2501 51.732 37.24 51.7016C37.0327 51.0913 36.7132 50.5915 36.2101 50.2554C36.2991 50.2156 36.3605 50.1213 36.3318 49.9912C36.2124 49.4476 35.7081 48.9752 35.1386 49.0089C34.5149 49.0453 33.8451 49.2714 33.2811 49.557C33.0755 49.5525 32.8703 49.5553 32.6676 49.5643C32.6327 49.5654 32.6343 49.6126 32.6676 49.6164C32.8321 49.6372 32.9966 49.6602 33.1611 49.6871C33.5521 49.7494 33.942 49.8285 34.3233 49.9267C34.7808 50.0445 35.2541 50.1628 35.6817 50.3687C36.5109 50.7688 37.0242 51.8145 36.9189 52.7243C36.9014 52.8736 36.8434 53.3246 36.6354 53.278C36.4597 53.2388 36.3898 52.8736 36.3284 52.7384C36.1639 52.3793 35.8676 52.1448 35.5121 51.9861C35.0946 51.7993 34.6479 51.673 34.2151 51.5261C33.9701 51.4425 33.7251 51.3589 33.4794 51.2758C33.2282 51.1901 32.9893 51.0716 32.7217 51.1317C32.56 51.1681 32.5414 51.36 32.6321 51.47C32.7701 51.6377 32.9752 51.6871 33.1741 51.7561C33.4366 51.8469 33.6986 51.9379 33.9605 52.0287C34.3656 52.1689 34.7898 52.2873 35.1847 52.459L35.1724 52.487C35.1402 52.4781 35.1025 52.51 35.1087 52.5493C35.1679 52.9123 35.2501 53.3319 35.1588 53.6955C35.0867 53.9838 34.8326 54.303 34.5025 54.2182C34.5543 54.1711 34.5735 54.0898 34.5386 54.0146C34.4078 53.7364 32.6952 52.6379 32.5425 53.0458C32.5374 53.0604 32.5532 53.071 32.5656 53.0688C32.6958 53.0418 32.9138 53.2629 33.018 53.333C33.1684 53.434 33.3211 53.5327 33.4698 53.6365C33.6327 53.7499 33.7915 53.8688 33.9465 53.9916C34.0682 54.0882 34.16 54.1885 34.2996 54.2374C34.2265 54.2721 34.1684 54.3366 34.1436 54.4191C34.0805 54.6339 33.9589 54.8163 33.7476 54.9111C33.5262 55.0098 33.2766 54.9475 33.0434 54.9717C32.7256 55.0036 32.4484 55.154 32.2169 55.3689C31.7307 55.821 31.4867 56.6177 30.8067 56.8313C30.4005 56.9587 29.9498 56.8785 29.5386 56.8207C29.0794 56.7562 28.6321 56.7051 28.1696 56.7724C27.7267 56.837 27.3082 56.9895 26.9036 57.1758C26.5245 57.3503 26.1053 57.5478 25.769 57.808C25.6997 57.5954 25.6298 57.385 25.5768 57.1679C25.4518 56.6547 25.3842 56.1318 25.3678 55.6045C25.3527 55.1024 25.3808 54.5981 25.4242 54.0982C25.4456 53.8486 25.4794 53.6 25.5008 53.3504C25.5064 53.2876 25.5177 53.2202 25.5262 53.153C26.1267 52.8001 26.7577 52.5297 27.3937 52.2515C27.3955 52.2509 27.3972 52.2497 27.3989 52.2492C27.4186 52.2402 27.4377 52.2318 27.4574 52.2234C27.4569 52.2222 27.4563 52.2212 27.4552 52.22C27.5279 52.1757 27.5786 52.1168 27.609 52.0506C28.5256 51.4453 29.2918 50.619 29.8631 49.6551C30.1025 49.2512 30.3329 48.8322 30.6462 48.4782C30.9797 48.1006 31.3758 47.8762 31.8659 47.7596C32.4389 47.6227 33.0293 47.5408 33.6163 47.4942C33.9369 47.469 34.2951 47.4297 34.6445 47.4314C34.8879 47.4331 35.1261 47.4538 35.3448 47.5138C35.6687 47.6025 35.858 47.8477 36.0614 48.0956C36.2558 48.3335 36.449 48.5719 36.6304 48.8199C36.8022 49.0549 36.9645 49.2978 37.1053 49.5525C37.1898 49.7051 37.2682 49.8622 37.3341 50.0243C37.3572 50.0816 37.3876 50.1466 37.4017 50.206C37.4158 50.2661 37.3898 50.3295 37.4574 50.3295C37.1786 50.3334 37.1814 50.7771 37.4586 50.7609C38.5436 50.698 36.9893 48.5888 36.7622 48.2947C36.4405 47.8785 36.1087 47.3354 35.5938 47.1419C35.5865 47.1391 35.5786 47.1363 35.5713 47.134C35.7211 46.9927 35.8394 46.8233 35.9527 46.651C36.0693 46.4738 36.2084 46.2707 36.2467 46.0603C36.271 45.9263 36.1036 45.8499 36.0242 45.9672C35.9087 46.1383 35.8529 46.3548 35.7667 46.5428C35.6789 46.7335 35.5718 46.9136 35.4873 47.106C35.2839 47.0437 35.0642 47.0152 34.8405 47.0056C35.1228 46.6253 35.605 45.8915 35.6631 45.7972C35.9301 45.3608 36.1842 44.9109 36.427 44.4604C36.6895 43.9723 36.9143 43.464 37.1656 42.9704C37.3082 42.6905 37.4518 42.4083 37.6101 42.1367C37.6648 42.0436 37.7234 41.9505 37.7898 41.8658C37.8028 41.849 37.8191 41.835 37.8343 41.8192C37.8518 41.8097 37.8698 41.799 37.88 41.7935C37.9712 41.7413 38.0034 41.6201 38.0675 41.5432C38.1701 41.4193 38.2907 41.4047 38.4451 41.403C38.774 41.3996 39.1042 41.4125 39.4327 41.4215C39.9155 41.4349 40.3977 41.454 40.88 41.4793C41.0259 41.4871 41.1712 41.495 41.3172 41.5039C42.0186 41.5455 42.7194 41.5999 43.4186 41.6667C44.0372 41.7255 44.6558 41.8215 45.2749 41.8675C44.4366 43.8506 43.507 45.7978 42.4546 47.6771C42.4439 47.6962 42.436 47.7152 42.431 47.7343ZM37.7797 52.8433C37.6445 52.905 37.5132 52.9818 37.391 53.0694C37.4113 52.9331 37.4163 52.7894 37.4107 52.6452C37.5115 52.7529 37.6405 52.8146 37.7797 52.8433ZM43.5515 49.4319C43.542 49.433 43.5329 49.438 43.5284 49.4476C43.3414 49.8319 43.4196 50.261 43.7251 50.5623C43.8851 50.7193 44.2338 50.8966 44.2225 51.1547C44.2129 51.3634 43.9848 51.5384 43.8873 51.7106C43.7966 51.8711 43.7628 52.0472 43.8355 52.2212C43.9284 52.4438 44.1882 52.5325 44.2772 52.7513C44.3898 53.0289 44.2067 53.3639 44.0783 53.6056C43.9589 53.8295 43.8044 54.0533 43.702 54.2901C43.0152 54.6441 42.4005 55.1871 41.8721 55.7386C41.2935 56.3417 40.7972 57.0513 39.8783 57.0334C39.7865 57.0316 39.7166 57.0799 39.6749 57.1466C39.4191 57.1584 39.1628 57.1635 38.907 57.1646C38.4574 57.1668 38.0079 57.1623 37.5589 57.1483C37.5273 57.04 37.5504 56.8931 37.5487 56.8016C37.5431 56.5071 37.5403 56.2131 37.5279 55.9186C37.5245 55.8368 37.5211 55.7542 37.5177 55.6723C37.6794 55.9635 37.9949 56.0959 38.3543 56.0757C38.9324 56.0421 39.5138 55.9478 40.0861 55.8631C40.3876 55.8188 40.6884 55.7683 40.9887 55.7144C41.2355 55.6707 41.5836 55.6819 41.756 55.485C41.7966 55.439 41.7989 55.3549 41.7352 55.324C41.5645 55.2404 41.4569 55.2869 41.2692 55.3229C41.0405 55.3672 40.8112 55.4092 40.5813 55.4486C40.1402 55.5248 39.698 55.5955 39.2546 55.6578C39.0022 55.6931 38.7493 55.7279 38.4963 55.7554C38.2755 55.7789 38.0265 55.8109 37.8484 55.6455C37.4896 55.3111 37.6907 54.7506 37.9177 54.4129C37.9222 54.4062 37.9222 54.4 37.9205 54.3944C38.1346 54.3445 38.3481 54.2861 38.5611 54.2452C38.9707 54.1666 39.3831 54.1005 39.796 54.0416C40.6445 53.9209 41.4986 53.8413 42.3515 53.7611C42.5627 53.7408 42.565 53.4099 42.3515 53.4296C41.1261 53.5412 39.8946 53.6472 38.6856 53.8823C38.3825 53.9406 38.0816 54.0068 37.7825 54.0814C37.6411 54.1162 37.4896 54.1706 37.3414 54.1723C37.3324 54.1723 37.3233 54.1723 37.3143 54.1717C37.0242 54.1628 36.982 53.9154 37.1414 53.7095C37.1611 53.6842 37.1814 53.6589 37.2022 53.6349C37.4839 53.3005 37.8349 53.0772 38.1965 52.8461C38.6017 52.7911 39.0056 52.6688 39.4022 52.579C40.3814 52.3569 41.3605 52.1347 42.3403 51.9131C42.5323 51.8694 42.4507 51.5754 42.2586 51.6186C41.5149 51.7864 40.7712 51.9541 40.0275 52.1218L38.9391 52.3676C38.7217 52.4163 38.4501 52.5145 38.1943 52.5499C38.0681 52.5673 37.9459 52.5695 37.8355 52.5437C37.4789 52.4596 37.4608 52.0158 37.6146 51.7521C37.787 51.456 38.1127 51.2708 38.4017 51.1031C38.9025 50.8119 39.4355 50.6027 39.956 50.3614C40.0484 50.3412 40.1408 50.321 40.2332 50.3008C40.7707 50.183 41.3848 50.1253 41.8907 49.9093C42.0422 49.8453 41.9594 49.6075 41.8096 49.6108C41.4169 49.6193 41.0062 49.7584 40.6225 49.8408C40.2073 49.9306 39.7915 50.0198 39.3763 50.109C39.3346 50.118 39.0879 50.1965 39.0507 50.1791C39.027 50.1679 39.0186 50.086 39.0107 50.0321C38.9853 49.8549 38.9667 49.6687 38.9943 49.4908C39.0552 49.0919 39.3893 48.9045 39.7273 48.7514C40.48 48.4109 41.3053 48.1977 42.1267 48.1124C42.316 48.0928 42.5053 48.0805 42.6958 48.0743C42.9194 48.0675 43.1036 48.0283 43.2169 48.2476C43.3949 48.5932 43.4929 49.0375 43.5515 49.4319ZM42.5062 61.9613C42.3422 61.3965 42.3869 60.7935 42.2745 60.2174C42.2165 59.9202 42.1374 59.6253 42.051 59.3352C41.9812 59.1008 41.8649 58.8515 41.8517 58.6069C41.8509 58.5906 41.8702 58.5811 41.8835 58.5887C42.1149 58.7206 42.2926 59.0059 42.4245 59.2297C42.5825 59.4976 42.7031 59.7781 42.8004 60.073C42.9943 60.6605 43.1536 61.3692 42.9035 61.9613C42.829 62.1376 42.5676 62.1729 42.5062 61.9613ZM37.4377 54.4802C37.5763 54.4668 37.7149 54.4404 37.8535 54.4095C37.6986 54.5599 37.5555 54.7411 37.476 54.942C37.4636 54.7877 37.4478 54.6339 37.427 54.4808C37.4304 54.4808 37.4343 54.4808 37.4377 54.4802ZM36.1058 66.237C35.8614 66.0672 35.6833 65.8298 35.476 65.6202C35.2722 65.4142 35.5909 65.0968 35.7947 65.3029C35.9716 65.4816 36.1251 65.7049 36.3332 65.8495C36.4334 65.919 36.4798 66.0447 36.4141 66.1565C36.3561 66.2552 36.2057 66.3064 36.1058 66.237ZM34.7429 59.71C35.189 59.5179 35.6278 59.3087 36.0947 59.1704C36.3737 59.0877 36.4919 59.5209 36.2145 59.6031C35.7845 59.7306 35.3812 59.9207 34.9703 60.0975C34.7066 60.211 34.4773 59.8243 34.7429 59.71ZM30.0313 59.5756C29.9222 59.3076 30.3584 59.1921 30.4659 59.4563C30.5897 59.7605 30.7315 60.0569 30.8553 60.361C30.9643 60.6291 30.5282 60.7447 30.4207 60.4804C30.2969 60.1762 30.155 59.8798 30.0313 59.5756ZM25.3809 64.9285C25.3082 65.025 25.187 65.0773 25.0725 65.0091C24.9767 64.9519 24.9181 64.7997 24.9917 64.7021C25.2065 64.417 25.4242 64.1353 25.6759 63.8811C25.88 63.675 26.1986 63.9926 25.9946 64.1985C25.7698 64.4254 25.5728 64.6739 25.3809 64.9285ZM24.7159 34.8936C24.9228 35.0342 25.104 35.2052 25.2808 35.3811C25.4862 35.5855 25.1675 35.9028 24.962 35.6983C24.8131 35.5501 24.6629 35.3997 24.4884 35.2811C24.3876 35.2125 24.3424 35.085 24.4076 34.9741C24.466 34.8746 24.6154 34.8252 24.7159 34.8936ZM31.4816 42.1156C31.3647 42.3488 31.2594 42.5774 31.2527 42.8425C31.2456 43.1312 30.7949 43.1314 30.8021 42.8425C30.8107 42.4956 30.9391 42.1948 31.0924 41.8891C31.2221 41.6303 31.6107 41.8579 31.4816 42.1156ZM33.964 36.3153C34.2063 36.1545 34.4317 36.5434 34.1915 36.7029C33.9968 36.8321 33.8021 36.9614 33.6074 37.0906C33.3652 37.2514 33.1398 36.8625 33.3799 36.7031C33.5746 36.5738 33.7693 36.4446 33.964 36.3153ZM23.1969 46.4565C23.1556 46.7417 22.7213 46.6197 22.7623 46.3373C22.8257 45.9007 22.903 45.4699 23.022 45.0447C23.0998 44.7664 23.5345 44.8854 23.4565 45.164C23.3376 45.5892 23.2603 46.02 23.1969 46.4565ZM21.6167 51.5975C21.3266 51.5914 21.3266 51.1426 21.6167 51.1487C21.8792 51.1542 22.1373 51.223 22.3906 51.2859C22.6723 51.356 22.5522 51.7887 22.2707 51.7187C22.0567 51.6655 21.8387 51.6022 21.6167 51.5975ZM21.0334 61.9534C20.9337 62.0017 20.8315 62.0451 20.7307 62.091C20.529 62.1829 20.3274 62.2748 20.1258 62.367C19.7058 62.559 19.2861 62.7515 18.8668 62.9448C18.0274 63.3317 17.1814 63.705 16.34 64.0877C15.4819 64.4781 14.6261 64.8736 13.7713 65.2711C13.3686 65.4583 12.9629 65.6386 12.5579 65.821C12.2116 65.9769 11.7836 66.2493 11.4035 66.2749C11.384 66.2763 11.3774 66.2516 11.3886 66.239C11.5322 66.0764 11.7613 65.9818 11.95 65.8761C12.1428 65.7681 12.3392 65.6665 12.5347 65.5634C12.9422 65.3484 13.3503 65.1351 13.7618 64.9276C14.5849 64.5129 15.4096 64.1011 16.2344 63.6899C17.0756 63.2704 17.9158 62.8481 18.7644 62.4436C19.164 62.2531 19.5639 62.0632 19.9641 61.8739C20.1809 61.7713 20.3978 61.6689 20.6147 61.5667C20.7084 61.5226 20.8011 61.475 20.8969 61.4355C21.0242 61.383 21.1209 61.3937 21.2522 61.3614C21.4662 61.3088 21.5589 61.5799 21.3946 61.6979C21.2593 61.7951 21.188 61.8783 21.0334 61.9534ZM18.0245 66.5552C17.9783 66.4433 18.0751 66.3072 18.182 66.2792C18.3099 66.2456 18.4125 66.323 18.4592 66.4359C18.5827 66.7352 18.7587 67.0098 18.9853 67.2417C19.1878 67.449 18.8692 67.7664 18.6666 67.5591C18.3827 67.2684 18.1787 66.9286 18.0245 66.5552ZM15.811 59.3515C15.6055 59.1469 15.9243 58.8297 16.1297 59.0342L16.7138 59.6158C16.9192 59.8204 16.6004 60.1377 16.3951 59.9331L15.811 59.3515ZM9.81829 58.4032C9.39835 58.5259 8.90855 58.6386 8.62224 58.9954C8.60826 59.0128 8.58477 58.9904 8.59317 58.973C8.9597 58.2164 10.0109 57.951 10.7386 57.6859C11.2534 57.4984 11.7816 57.3429 12.3142 57.204C12.2609 56.5989 12.4078 55.9505 12.4588 55.3484C12.5133 54.7056 12.5576 54.0612 12.5804 53.4164C12.6036 52.7586 12.6093 52.0964 12.5875 51.4385C12.5659 50.783 12.4804 50.1355 12.443 49.4821C12.4394 49.419 12.5278 49.4159 12.5468 49.4682C12.768 50.0744 12.8625 50.746 12.9345 51.3852C13.0086 52.0438 13.0332 52.7004 13.0238 53.3628C13.014 54.0438 12.9742 54.7233 12.9196 55.4021C12.8937 55.7239 12.8637 56.0452 12.8354 56.3668C12.8137 56.6122 12.8037 56.8556 12.7534 57.0932C13.0747 57.0147 13.3967 56.9404 13.7176 56.8682C14.7411 56.6383 15.7688 56.4249 16.7879 56.1762C17.2882 56.0541 17.7813 55.908 18.2794 55.7781C18.7483 55.6559 19.2433 55.5077 19.7248 55.4532C19.8966 55.4336 19.9185 55.6677 19.8047 55.7471C19.4134 56.0207 18.8937 56.2112 18.4417 56.3644C17.988 56.518 17.5165 56.6286 17.0515 56.7424C16.0819 56.9799 15.1031 57.1741 14.1257 57.3763C13.1497 57.5783 12.1719 57.7788 11.2069 58.0281C10.7421 58.1481 10.279 58.2686 9.81829 58.4032ZM7.51705 46.3967C7.26612 46.5434 7.03959 46.1554 7.28962 46.0092C7.61677 45.818 7.96545 45.6743 8.31694 45.5342C8.58669 45.4267 8.70274 45.8609 8.43677 45.967C8.12088 46.0929 7.81102 46.225 7.51705 46.3967ZM6.60843 63.0702C6.35683 63.2155 6.13012 62.8276 6.381 62.6828C6.73334 62.4794 7.11919 62.3437 7.48432 62.1658C7.7441 62.0391 7.97226 62.4263 7.71176 62.5533C7.34669 62.7312 6.96077 62.8669 6.60843 63.0702ZM6.19976 53.6056C6.44303 53.8357 6.7677 53.944 7.07384 54.0649C7.34077 54.1702 7.2237 54.6041 6.95401 54.4977C6.5726 54.3471 6.1841 54.2096 5.88105 53.9229C5.67024 53.7235 5.9895 53.4067 6.19976 53.6056ZM8.89108 40.7519C9.15852 40.8563 9.04139 41.2902 8.77125 41.1847C8.47164 41.0677 8.16224 40.9786 7.86263 40.8615C7.59525 40.7571 7.71232 40.3233 7.98246 40.4287C8.28207 40.5458 8.59148 40.6348 8.89108 40.7519ZM13.6389 35.6464C13.923 35.5987 14.044 36.0312 13.7587 36.0792C13.4047 36.1387 13.056 36.2083 12.7203 36.3377C12.4491 36.4422 12.3328 36.0081 12.6004 35.905C12.9363 35.7756 13.2849 35.7059 13.6389 35.6464ZM15.2076 48.077C14.947 47.9494 15.1756 47.5626 15.435 47.6895C15.7084 47.8233 15.9916 47.9268 16.2898 47.99C16.5738 48.0503 16.4529 48.4828 16.17 48.4228C15.8343 48.3516 15.515 48.2275 15.2076 48.077ZM16.6892 41.075C16.9698 40.9985 17.0884 41.4315 16.8091 41.5078C16.3175 41.6419 15.8114 41.7116 15.3163 41.8309C15.0341 41.8989 14.9147 41.4661 15.1964 41.3982C15.6916 41.2788 16.1977 41.2092 16.6892 41.075ZM22.9746 38.8777C23.2599 38.9303 23.1383 39.3627 22.8549 39.3105C22.5531 39.2549 22.2472 39.254 21.9412 39.2539C21.6507 39.2537 21.6513 38.805 21.9412 38.8051C22.2888 38.8052 22.632 38.8146 22.9746 38.8777ZM43.4738 41.2224C42.7374 41.1523 42 41.0962 41.2614 41.0541C41.227 41.0523 41.1932 41.0502 41.1588 41.0484C41.1549 41.0406 41.1498 41.0333 41.1447 41.0254C40.9036 40.6731 40.7262 40.3209 40.5724 39.9225C40.4253 39.5433 40.2828 39.1523 40.0563 38.8101C39.798 38.4202 39.4493 38.1152 39.0671 37.8508C38.8353 38.006 38.6201 38.1877 38.4233 38.3804C38.2161 38.5831 37.8973 38.2658 38.1045 38.063C38.2795 37.8918 38.4662 37.7337 38.6635 37.5908C38.4356 37.4529 38.2031 37.3233 37.9763 37.1944C37.1261 36.7114 36.2558 36.2648 35.3673 35.8565C34.9543 35.6663 34.5363 35.4974 34.1155 35.3263C33.8889 35.2344 33.6653 35.1159 33.4389 35.0094C33.4552 34.85 33.4073 34.6716 33.2845 34.5667C33.1938 34.4899 33.1234 34.4613 33.0152 34.4069C32.991 34.3984 32.9763 34.3934 32.9696 34.3906C32.9746 34.3917 32.9893 34.3962 33.0134 34.404C33.071 34.4305 33.0755 34.4225 33.027 34.381C33.0242 34.2902 32.8444 34.0983 32.8034 34.0047C32.6603 33.6832 32.6158 33.3432 32.4045 33.0504C32.1132 32.647 31.6242 32.4945 31.1684 32.6313C31.1211 32.146 31.1087 31.6395 30.9251 31.2064C30.92 31.1947 30.9036 31.1895 30.8963 31.2025C30.7048 31.5273 30.6884 31.8891 30.6738 32.2638C30.6597 32.6156 30.6732 32.9752 30.7194 33.3247C30.6901 33.3471 30.6603 33.3685 30.6293 33.3892C30.4839 33.4846 30.3273 33.5581 30.1628 33.6125C29.8496 33.7157 29.5211 33.7606 29.1927 33.7763C28.3448 33.8167 27.471 33.7314 26.6372 33.5867C25.7938 33.4402 24.5008 33.2203 23.7504 32.8002C23.2551 32.5231 22.7983 32.1847 22.3351 31.8571C22.5031 31.3186 22.5459 30.7396 22.3769 30.2847C22.3566 30.2303 22.271 30.2202 22.2546 30.2847C22.1487 30.7189 22.1177 31.1553 21.9769 31.5845C21.9746 31.5907 21.9724 31.5974 21.9701 31.6036C21.9262 31.5739 21.8822 31.5447 21.8383 31.5155C21.7369 31.4487 21.5989 31.4987 21.538 31.594C20.565 33.1205 19.0242 33.208 17.4062 33.4807C15.6354 33.7791 13.8558 34.1011 12.1532 34.6851C10.5251 35.2439 8.969 36.0573 7.73632 37.2724C7.45728 37.5475 7.19632 37.8407 6.95001 38.1467C7.18832 38.1766 7.42466 38.2231 7.65796 38.2961C7.93418 38.3825 7.81548 38.8157 7.53812 38.7289C7.23829 38.6351 6.93514 38.5887 6.62888 38.5656C5.79131 39.7065 5.13824 41.0002 4.5735 42.2736C3.49029 44.7151 2.78522 47.3152 2.46077 49.9623C2.63891 49.856 2.82026 49.7548 3.00612 49.6606C3.26438 49.5298 3.49215 49.9171 3.23362 50.0481C2.94652 50.1935 2.66765 50.3538 2.39745 50.5276C2.27942 51.6863 2.23367 52.8525 2.26139 54.0169C2.32731 56.7926 2.70365 59.6498 3.55491 62.2982C3.97238 63.598 4.52562 64.8872 5.34984 65.9857C5.7228 66.4832 6.14646 66.932 6.64562 67.3062C6.88731 67.4879 7.14308 67.6501 7.41294 67.7869C7.76055 67.9642 8.2135 68.0226 8.51322 68.2733C8.61181 68.3559 8.68787 68.4646 8.74534 68.5875C8.7121 68.8209 8.70815 69.0548 8.77238 69.2882C8.79266 69.3611 8.84787 69.4206 8.91604 69.4492C8.91717 69.4694 8.91717 69.489 8.91717 69.5081C8.91717 69.517 8.93069 69.5193 8.93238 69.5104C8.93519 69.4929 8.93801 69.4755 8.94083 69.4576C8.9628 69.4649 8.9859 69.4683 9.00956 69.4683C9.86533 69.4715 10.7222 69.4507 11.5791 69.4218C11.5128 69.2197 11.4411 69.0193 11.3722 68.8172C11.2786 68.5426 11.714 68.4259 11.8067 68.6979C11.8874 68.9342 11.9716 69.1684 12.0466 69.4055C12.9648 69.3715 13.8826 69.3307 14.7989 69.3006C16.7476 69.236 18.6958 69.2147 20.645 69.1738C23.6721 69.1099 26.7212 68.9791 29.753 69.107C29.8578 68.8854 29.9752 68.6689 30.0865 68.4504C30.2177 68.1924 30.6065 68.4198 30.4756 68.6769C30.3983 68.8288 30.3182 68.9787 30.2421 69.1303C30.8561 69.1621 31.4695 69.204 32.0816 69.2613C33.1261 69.3588 34.1605 69.5322 35.2039 69.64C36.2647 69.7499 37.3025 69.7303 38.3549 69.5558C38.5442 69.5244 38.6558 69.4105 38.702 69.2691C38.7036 69.2685 38.7048 69.2675 38.7058 69.2657C38.7599 69.2029 38.8107 69.1508 38.863 69.1053C38.9256 69.0649 38.9932 69.0307 39.0727 69.0004C39.2208 68.9443 39.3752 68.9101 39.5318 68.8871C39.7042 68.8613 39.8789 68.859 40.0513 68.8377C40.1965 68.8192 40.3386 68.7917 40.4805 68.7581C40.7358 68.6975 40.978 68.6184 41.2191 68.5134C41.4293 68.422 41.6191 68.2908 41.7983 68.1477C42.169 67.8778 42.4901 67.5334 42.7707 67.1755C42.9341 66.9662 43.0879 66.7491 43.2276 66.5231C43.471 66.1315 43.6783 65.7247 43.8879 65.3147C43.9639 65.1931 44.0333 65.0687 44.0968 64.9417C43.6872 64.8215 43.2737 64.7235 42.8395 64.7166C42.5492 64.7119 42.5493 64.2631 42.8395 64.2678C43.3374 64.2757 43.8085 64.3915 44.2765 64.5296C44.2993 64.4692 44.3212 64.4085 44.3414 64.347C44.3972 64.2185 44.4434 64.0866 44.4817 63.9531C44.5042 63.8925 44.5267 63.832 44.5493 63.7714C44.6 63.5616 44.6507 63.3512 44.702 63.1408C44.8039 62.8042 44.8844 62.4626 44.9436 62.1164C44.9932 61.8887 45.0315 61.6592 45.0574 61.427C45.1363 60.8643 45.2005 60.3028 45.2051 59.7339C45.1983 59.3833 45.1758 59.0332 45.1374 58.6849C45.1211 58.4481 45.0935 58.2125 45.0563 57.9786C45.0079 57.6308 44.96 57.2864 44.8794 56.943C44.8191 56.7108 44.7589 56.4785 44.6986 56.2462C44.5481 55.7622 44.3707 55.2875 44.1661 54.8236C44.1549 54.7944 44.098 54.7304 44.0636 54.7299C44.0377 54.7293 44.0016 54.7529 44.0134 54.7843C44.0146 54.7871 44.0157 54.7905 44.0169 54.7933C44.0051 54.7669 43.9938 54.74 43.982 54.7136C43.9718 54.6889 43.9324 54.6396 43.902 54.6402C43.9003 54.6402 43.8985 54.6402 43.8963 54.6407C43.9042 54.6351 43.9115 54.6278 43.9189 54.6194C44.1211 54.381 44.2524 54.0673 44.3972 53.7913C44.5172 53.5636 44.6304 53.3235 44.6631 53.066C44.6918 52.8399 44.6529 52.6172 44.5104 52.4343C44.3482 52.2262 44.0428 52.1286 44.2124 51.8279C44.4051 51.4857 44.6884 51.1889 44.4062 50.8001C44.2625 50.6021 44.0349 50.4933 43.8659 50.321C43.6715 50.1219 43.5791 49.8554 43.5842 49.5833C43.596 49.5901 43.6118 49.5868 43.6174 49.5699C43.7808 49.0784 43.6625 48.5388 43.4952 48.0602C43.4039 47.8006 43.2106 47.7293 42.9859 47.7164C43.9594 45.8231 44.8703 43.8994 45.6822 41.9314C45.7093 41.8669 45.7358 41.8024 45.7622 41.7379C45.8017 41.6414 45.7183 41.513 45.622 41.4916C44.92 41.3384 44.1887 41.2896 43.4738 41.2224Z" fill="black"/>
<path fill-rule="evenodd" clip-rule="evenodd" d="M35.9363 12.2021C35.8111 11.8877 35.5898 11.4925 35.22 11.4767C34.9339 10.6058 34.2226 9.7188 33.2332 9.74236C30.3291 6.78515 26.6729 6.92456 22.8504 7.55057C20.8337 7.92301 18.786 8.6523 17.2819 10.0915C15.4804 11.7858 14.779 14.7421 16.1897 16.8846C14.9705 17.5352 14.9468 19.0791 15.4682 20.1931C14.8414 20.6247 14.8034 21.6722 15.5091 22.0014C15.4716 22.1544 15.4981 22.3126 15.5697 22.4486C15.2198 22.7386 14.7643 22.9529 14.3878 23.137C14.2214 23.2184 14.1254 23.3514 14.0855 23.5012C12.8492 24.3088 9.76652 26.2825 9.80325 27.8534C9.78511 28.6728 10.3956 29.2122 11.1374 29.4269C10.696 30.3056 10.361 31.3319 10.7835 32.2798C10.9003 32.5662 11.7754 33.4079 11.8194 33.4234C11.8964 33.4891 13.1518 32.9152 13.762 32.6225C13.8803 33.3888 14.7032 33.7903 15.4125 33.5277C16.0852 33.3258 16.4986 32.7588 16.9229 32.2431C17.486 33.4662 19.1427 33.4803 20.2134 32.9529C21.1751 32.5106 21.9061 31.6998 22.3133 30.7229C24.4756 31.7769 27.0056 32.0842 29.3549 31.6632C29.5056 31.9288 29.8394 32.1073 30.1367 32.0045C31.3859 31.6306 32.7671 31.6096 33.8261 30.7528C36.0333 29.1752 36.2192 26.2668 36.0653 23.7876C35.9288 21.3157 36.0483 18.8232 35.597 16.378C35.7928 15.6581 36.1186 15.0217 36.42 14.3454C36.7474 13.6361 36.7405 12.5819 35.9363 12.2021Z" fill="#F5F4F3"/>
<path fill-rule="evenodd" clip-rule="evenodd" d="M15.4146 22.6945C15.5447 22.6619 15.6146 22.836 15.5042 22.906C14.8031 23.35 14.0789 23.7466 13.4016 24.2297C12.7575 24.689 12.1625 25.2121 11.6077 25.7746L11.5462 25.8373C11.0447 26.3511 10.4892 27.0047 10.4835 27.7627C10.4792 28.3519 10.9354 28.9949 11.5718 28.9175C11.8116 28.8883 12.032 29.1913 11.9483 29.4097L11.8603 29.6398C11.5062 30.5714 11.1459 31.6268 11.4256 32.6068L11.4359 32.6418C11.5035 32.8662 11.5749 33.0645 11.8364 33.06C12.0792 33.0558 12.3318 32.9743 12.5591 32.8964C13.0307 32.7349 13.4581 32.4656 13.8208 32.1269C14.1417 31.8273 14.5517 32.1317 14.5085 32.5124L14.5069 32.5246C14.4478 32.9518 15.1314 33.1502 15.4421 33.0891C16.0557 32.9683 16.4932 32.3561 16.8416 31.8894C17.0091 31.6652 17.4159 31.5769 17.5631 31.8894C17.8547 32.5085 18.4558 32.9712 19.1589 32.9906C19.5242 33.0006 19.8746 32.8971 20.1839 32.7051C20.3102 32.6267 20.4231 32.5335 20.5267 32.4279L20.5524 32.4012C20.7056 32.2395 20.8114 32.1535 21.0071 32.0478C21.1999 31.9438 21.4494 32.0728 21.4482 32.2998C21.4466 32.5939 21.3601 32.7894 21.1564 33.0027C20.9879 33.1794 20.7877 33.3344 20.5772 33.4583C20.1542 33.7072 19.6514 33.8472 19.1589 33.831C18.3827 33.8054 17.6418 33.4202 17.1615 32.821C16.6711 33.4049 16.0629 33.9413 15.2724 33.9269C14.6806 33.9161 14.1291 33.6094 13.8649 33.1341C13.4919 33.3902 13.0825 33.5904 12.6445 33.7212L12.6055 33.7326C11.9855 33.9123 11.2721 33.9837 10.8731 33.3709C10.4984 32.7955 10.4705 31.9987 10.5563 31.3411C10.633 30.7536 10.8145 30.1957 11.023 29.6454C10.4296 29.469 9.96906 28.914 9.81086 28.3158C9.57154 27.4111 10.0358 26.5338 10.6098 25.8616C11.2333 25.1314 12.018 24.5138 12.8086 23.9733C13.5971 23.4342 14.4804 22.9276 15.4146 22.6945ZM35.689 15.6186C35.6905 15.5934 35.7318 15.5846 35.7356 15.6122C36.008 17.5801 36.1657 19.5439 36.2962 21.5253C36.3624 22.5291 36.4376 23.5319 36.5198 24.5344C36.5987 25.4958 36.7301 26.4827 36.7004 27.448C36.6539 28.9596 35.9168 30.1886 34.7081 31.073C33.55 31.9206 32.1133 32.3397 30.7036 32.5167C29.885 32.6196 29.055 32.6245 28.2354 32.5279C27.8098 32.4777 27.3847 32.4109 26.9678 32.3107L26.7875 32.2658C26.4592 32.1823 26.0926 32.0689 26.0458 31.6817C26.0231 31.4942 26.1231 31.3558 26.2847 31.2617C26.4954 31.139 26.7369 31.2112 26.954 31.2671C27.3198 31.3614 27.6894 31.4423 28.0633 31.4982C28.8663 31.6185 29.6918 31.6256 30.4989 31.5424C31.8565 31.4022 33.2886 30.9638 34.3354 30.0582C34.7903 29.6647 35.1858 29.1852 35.3939 28.6156C35.6614 27.8833 35.6218 27.0844 35.6128 26.3175C35.592 24.5344 35.6103 22.7513 35.5854 20.968C35.5604 19.1793 35.5822 17.4046 35.689 15.6186ZM22.0364 7.28533C23.6227 6.87794 25.2327 6.77208 26.8622 6.89472C28.399 7.01028 30.1496 7.35265 31.4047 8.29383C31.4656 8.33949 31.4291 8.42594 31.3537 8.41399C30.5146 8.28081 29.6967 8.03858 28.8612 7.8783C28.0576 7.72414 27.2395 7.60841 26.4213 7.58159C23.6538 7.49077 20.5745 8.11521 18.3429 9.83324C17.2965 10.6388 16.498 11.7219 16.1802 13.0107C15.8543 14.3326 16.0306 15.7621 16.6851 16.9578C16.7794 17.13 16.7405 17.4024 16.5439 17.494C15.9473 17.7722 15.5223 18.3884 15.5315 19.0533C15.536 19.3758 15.6476 19.6851 15.8271 19.9517C16.0168 20.2336 16.3057 20.4308 16.5179 20.6941C16.6014 20.7978 16.6047 20.9405 16.5385 21.036C16.6626 21.0902 16.7964 21.1192 16.9186 21.1832C17.0221 21.2374 17.0251 21.4068 16.9186 21.4602C16.6493 21.5952 16.3581 21.4519 16.1764 21.2342C16.1439 21.1953 16.1159 21.1548 16.0903 21.1136C15.8726 21.0676 15.6776 20.9588 15.5073 20.8101C15.1827 21.0035 15.1383 21.4343 15.4171 21.7634C15.5594 21.9314 15.7617 22.0351 15.9661 22.1097L15.9906 22.1185C16.1896 22.1889 16.3718 22.2281 16.501 22.3866C16.5862 22.2097 16.6841 22.0429 16.7932 21.8909C17.1897 21.3385 17.7993 20.8484 18.5226 20.9106C19.0892 20.9593 19.5801 21.3632 19.6962 21.9205C19.7048 21.9617 19.6424 21.9939 19.6238 21.9509C19.3519 21.3197 18.4918 21.2965 17.9795 21.6255C17.3769 22.0123 17.0476 22.7413 16.9155 23.4203C16.7855 24.0891 16.8607 24.9025 17.3634 25.4113C17.5691 25.6194 17.8489 25.7634 18.1409 25.8013C18.2837 25.8199 18.4096 25.8016 18.5462 25.7742L18.6366 25.7554C18.6994 25.7425 18.7618 25.7321 18.8276 25.7379L18.9257 25.751L18.9815 25.7769C19.0298 25.7986 19.0254 25.7927 18.9684 25.7591C19.135 25.7455 19.2212 25.8682 19.2303 26.0026C19.2356 26.006 19.2407 26.0097 19.245 26.0149C19.8774 26.7856 20.347 27.6714 21.0182 28.4169L21.2147 28.6353C21.7197 29.1947 22.2964 29.8013 22.9825 30.0915L23.0641 30.1251C23.2638 30.2091 23.4642 30.324 23.4897 30.5636C23.5125 30.7783 23.3426 30.9398 23.1467 30.9899C22.7006 31.1038 22.1921 30.709 21.8654 30.45C21.1629 29.8932 20.5724 29.1835 20.0848 28.4367L20.0366 28.3623C19.6358 27.739 19.2591 27.0281 19.142 26.2882L19.1209 26.3223C19.1193 26.3248 19.1181 26.3266 19.1173 26.3277C19.0934 26.36 19.0671 26.3873 19.0365 26.4134C18.9545 26.4839 18.8545 26.5251 18.7505 26.553C18.5554 26.6055 18.3415 26.6158 18.1409 26.5954C17.7336 26.5539 17.3528 26.3995 17.0307 26.1481C16.0502 25.3824 15.9345 23.9576 16.331 22.8017C16.0056 22.879 15.635 22.661 15.3809 22.4741C15.0895 22.2597 14.8492 21.9502 14.7918 21.5861C14.7348 21.2249 14.9661 20.7464 15.3092 20.607C14.9532 20.1814 14.746 19.5774 14.7245 19.0938C14.6874 18.2525 15.1362 17.4573 15.8253 16.9983C15.1773 15.6154 15.0524 14.0111 15.4888 12.5427C16.3546 9.62899 19.2551 7.99959 22.0364 7.28533ZM19.5676 29.4234L19.5757 29.3978C19.6447 29.1724 19.7338 28.7242 20.0719 28.8949C20.3949 29.0578 20.1887 29.5402 20.0758 29.7751C19.9406 30.0561 19.7072 30.2814 19.3937 30.3417C19.1388 30.3908 18.8588 30.3278 18.6804 30.1316C18.6284 30.0744 18.599 30.0117 18.5682 29.9425C18.5562 29.9155 18.5508 29.8971 18.5486 29.8851C18.5456 29.8983 18.5373 29.9179 18.516 29.941C18.3737 30.0958 18.2393 30.2761 18.136 30.4592C18.1115 30.5026 18.0345 30.4722 18.054 30.4248C18.1742 30.1319 18.154 29.6789 18.4221 29.467C18.6585 29.2802 18.8805 29.4272 19.0055 29.6447L19.0119 29.656C19.1946 29.9863 19.4857 29.6726 19.5676 29.4234ZM16.9969 28.3649L17.0216 28.3308C17.2743 27.9869 17.7005 27.5732 18.1269 27.893C18.2625 27.9948 18.2675 28.1645 18.1269 28.2654L18.0737 28.3033C17.8874 28.4348 17.7019 28.559 17.5651 28.7475C17.4164 28.9526 17.2829 29.1697 17.083 29.3305C16.7295 29.615 16.1581 29.671 15.8514 29.2876L15.8212 29.2496C15.7955 29.2167 15.7661 29.177 15.7422 29.1375L15.7236 29.1632C15.7217 29.1657 15.72 29.1682 15.7185 29.1705L15.7142 29.177C15.5881 29.3777 15.4288 29.5429 15.2305 29.6732C14.8535 29.9209 14.4286 29.9554 14.0021 29.8243C13.9603 29.8114 13.9715 29.7556 14.0119 29.7519C14.5173 29.7049 15.0098 29.3474 15.2154 28.887L15.2386 28.8353C15.3218 28.6522 15.415 28.4781 15.6205 28.4062C15.8206 28.3362 16.0306 28.4102 16.1678 28.5608C16.2825 28.6868 16.312 28.9372 16.5189 28.882C16.7455 28.8215 16.8731 28.5389 16.9969 28.3649ZM15.5493 25.3062C15.6613 25.2215 15.8366 25.3124 15.8674 25.4351C16.0071 25.9908 15.427 26.6457 14.8696 26.6629C14.7261 26.6673 14.5881 26.6327 14.461 26.5666C14.3624 26.5153 14.2457 26.3842 14.1375 26.3625C13.9977 26.3345 13.8739 26.5199 13.7755 26.615C13.6534 26.7331 13.5326 26.8427 13.3958 26.9434C13.3412 26.9836 13.2564 26.9161 13.2795 26.8543L13.3258 26.7315C13.4932 26.2944 13.7817 25.6563 14.3216 25.8377C14.5861 25.9265 14.7852 26.2262 15.0637 25.9889C15.2868 25.7989 15.3075 25.4891 15.5493 25.3062ZM17.9312 23.069C18.4345 22.4938 19.6176 22.7976 19.8419 23.4974C19.8915 23.652 19.8397 23.8529 19.7185 23.9623C19.5588 24.1064 19.331 24.15 19.137 24.037C18.9702 23.9398 18.9017 23.7807 18.779 23.6442C18.5991 23.4442 18.3545 23.3332 18.1023 23.2536C18.0393 23.2866 17.9806 23.33 17.928 23.3822C17.9011 23.409 17.8502 23.3723 17.8741 23.3408C17.9066 23.2979 17.9462 23.2576 17.9914 23.2204L17.9697 23.2141C17.9033 23.1957 17.8889 23.1175 17.9312 23.069ZM21.2021 16.7178C21.3149 16.7179 21.4462 16.8234 21.4318 16.9465L21.4275 16.9807C21.395 17.2152 21.3194 17.3479 21.0837 17.4568C20.8838 17.5491 20.6737 17.6001 20.4546 17.6203C20.3717 17.6279 20.2839 17.6284 20.1949 17.6218L20.1762 17.7294C20.139 17.9446 20.1045 18.16 20.0981 18.3794C20.086 18.786 20.2384 19.1212 20.4018 19.4842C20.7156 20.1817 20.7509 20.8779 20.4093 21.5743C20.3593 21.6761 20.2178 21.7591 20.1037 21.7488C19.9557 21.7354 19.8842 21.6928 19.7981 21.5743C19.7258 21.4747 19.7424 21.334 19.7924 21.23L19.7981 21.2185C19.9702 20.8865 20.0245 20.5114 19.9366 20.1464C19.854 19.8033 19.6669 19.495 19.5834 19.153C19.4473 18.596 19.5922 18.0434 19.8755 17.5655C19.6617 17.5042 19.4639 17.3949 19.332 17.2282L19.3326 17.228C19.2822 17.1744 19.3097 17.0625 19.3981 17.0692L19.498 17.0773C19.784 17.1011 20.0472 17.1258 20.3364 17.0465C20.4846 17.0057 20.6126 16.9378 20.7398 16.8556L20.7671 16.8378C20.9263 16.7324 21.0146 16.7175 21.2021 16.7178ZM21.8864 12.6005C22.6033 12.5599 23.2153 13.031 23.5128 13.6581C23.836 14.3389 23.7004 15.12 23.4151 15.7898L23.3341 15.9773C23.1923 16.3021 23.006 16.6883 22.7155 16.8626C22.3892 17.0584 22.1071 16.8314 22.2033 16.4705C22.2607 16.2556 22.4159 16.0898 22.5415 15.9124C22.6587 15.7468 22.768 15.5753 22.8639 15.3965C23.0517 15.0457 23.192 14.655 23.1904 14.2531C23.1878 13.5197 22.7011 12.6791 21.8864 12.6899C21.8282 12.6906 21.8292 12.6037 21.8864 12.6005ZM25.512 11.417C25.4673 11.3833 25.5072 11.3082 25.5572 11.3399C26.3885 11.8663 27.0091 12.8551 27.1341 13.8266C27.2034 14.3656 27.1505 14.9416 26.92 15.4391C26.7877 15.7245 26.5608 15.997 26.2435 16.0752C25.9518 16.1471 25.6511 15.9812 25.5606 15.6977C25.5255 15.5877 25.5859 15.4726 25.6771 15.4125C25.9729 15.2178 26.211 14.9721 26.3503 14.6416C26.4953 14.2979 26.5531 13.9332 26.5548 13.5625C26.5591 12.6944 26.2112 11.9462 25.512 11.417ZM35.6663 11.7933C35.6279 11.7508 35.6763 11.6882 35.7272 11.7148C36.3281 12.0295 36.71 12.6324 36.8194 13.2926C36.9266 13.939 36.7824 14.819 36.2799 15.2864C35.9964 15.5503 35.4884 15.1994 35.7241 14.8595C35.8903 14.6198 36.07 14.4223 36.1652 14.1391C36.25 13.8864 36.28 13.6315 36.2754 13.3659C36.2653 12.7865 36.0574 12.2253 35.6663 11.7933ZM28.3189 10.9839C29.3456 10.9352 29.9679 12.1023 30.1104 12.9723C30.1984 13.5098 30.1323 14.0634 29.8343 14.5295L29.8166 14.5567C29.5707 14.9291 29.1236 15.3579 28.6419 15.1815C28.438 15.107 28.3838 14.8895 28.5207 14.7245C28.7303 14.4719 29.0543 14.369 29.2513 14.0993C29.4724 13.7969 29.5448 13.418 29.5321 13.0502L29.5303 13.0096C29.4961 12.3331 29.172 11.0346 28.3189 11.0576C28.271 11.0588 28.2716 10.9861 28.3189 10.9839ZM31.5305 10.79C32.5237 10.6636 33.1284 11.827 33.315 12.6284C33.4315 13.1294 33.4569 13.6883 33.3079 14.1856L33.2968 14.221C33.1755 14.5921 32.8177 15.228 32.3505 15.0384C32.2225 14.9864 32.0918 14.8449 32.1531 14.6923C32.2314 14.4972 32.3443 14.4466 32.4949 14.3218C32.6108 14.2257 32.6918 14.0878 32.7514 13.9519C32.9101 13.5898 32.9455 13.1667 32.9238 12.7765L32.9208 12.7303C32.8647 11.9681 32.4497 10.8322 31.5305 10.8531C31.4886 10.854 31.4914 10.7949 31.5305 10.79ZM33.3487 9.69626C33.9015 9.48667 34.3543 10.0129 34.672 10.3885C35.0701 10.8591 35.4311 11.3661 35.6353 11.9519C35.8171 12.4739 35.8491 13.0544 35.6853 13.5857C35.6042 13.8488 35.4779 14.0928 35.3055 14.3076L35.2835 14.3346C35.1041 14.5525 34.9309 14.6863 34.6369 14.6084C34.5173 14.5765 34.4668 14.4588 34.4875 14.3463C34.5318 14.1058 34.6562 14.0434 34.8174 13.8755C34.9595 13.7275 35.065 13.5452 35.1359 13.3535C35.2822 12.958 35.2898 12.5296 35.1916 12.1222C35.0818 11.6661 34.8655 11.245 34.6153 10.8503L34.5614 10.7658C34.2963 10.3486 33.9184 9.70602 33.3593 9.77373C33.3114 9.77956 33.3108 9.71062 33.3487 9.69626Z" fill="black"/>
<path fill-rule="evenodd" clip-rule="evenodd" d="M30.1738 28.0481C29.7951 27.8942 29.4572 27.6376 29.2102 27.3098C29.1243 27.1958 29.102 27.0755 29.12 26.9654C29.1403 26.8416 29.2138 26.7295 29.3141 26.6542C29.4147 26.5788 29.5405 26.5415 29.6622 26.5605C29.7679 26.577 29.8731 26.6346 29.9564 26.7542L29.9738 26.7781C30.1207 26.9759 30.312 27.1383 30.5301 27.2429C30.7403 27.3438 30.9754 27.3908 31.2187 27.3635C31.682 27.3113 32.0013 27.0618 32.3407 26.723C32.3828 26.6802 32.4249 26.6361 32.4672 26.5913C32.4939 26.5507 32.531 26.5245 32.5722 26.5108C32.6179 26.4956 32.6696 26.4965 32.7169 26.5129C32.7626 26.5288 32.8034 26.5589 32.8308 26.5989C32.8568 26.637 32.8716 26.684 32.8668 26.738C32.8357 27.0891 32.6514 27.4025 32.3895 27.6486C32.0986 27.9219 31.7131 28.1109 31.3502 28.1772C30.9503 28.2503 30.5428 28.1979 30.1738 28.0481ZM31.5388 22.6312C31.9642 22.8887 32.6124 23.4891 32.1548 24.1275C31.6161 24.6903 30.8404 24.045 30.4582 23.7531C30.1038 23.5269 29.7056 24.1087 30.0344 24.3728C32.7963 26.4089 33.9172 22.6985 31.754 22.3284C31.5158 22.2876 31.4273 22.5515 31.5388 22.6312ZM26.5894 20.2626C26.6364 19.6816 27.525 19.5497 27.6134 20.1246C27.6926 20.6396 27.5994 21.1127 27.3665 21.5763C27.1439 22.0193 26.5844 21.8126 26.5421 21.4093C26.4854 20.8686 26.5602 20.624 26.5894 20.2626ZM33.3536 20.0054C33.4775 19.8438 33.6564 19.7336 33.8707 19.7959C34.5402 19.9907 34.3429 20.9373 34.1077 21.398C33.98 21.6482 33.5669 21.7117 33.3803 21.4914C33.0761 21.1321 32.9304 20.4147 33.3171 20.0608C33.3276 20.0425 33.3393 20.024 33.3536 20.0054ZM27.357 17.7204L27.4628 17.702C27.79 17.6457 28.1968 17.5915 28.4283 17.8534C28.551 17.9923 28.5933 18.2505 28.4283 18.3835C28.138 18.6174 27.8171 18.5267 27.4693 18.5466C27.1827 18.5629 26.9072 18.6102 26.631 18.6888C26.0253 18.8612 25.5317 19.1759 25.0144 19.5214C24.9465 19.5668 24.8772 19.4803 24.9096 19.4171C25.2082 18.8346 25.787 18.3562 26.3667 18.0645C26.6761 17.9088 27.0147 17.7797 27.357 17.7204ZM32.7432 17.4595L32.8242 17.476C33.7051 17.6594 34.8497 18.0257 35.2669 18.8873C35.2828 19.0092 35.266 19.0353 35.2524 19.0523L35.2478 19.058C35.2366 19.0726 35.2276 19.0927 35.1745 19.1092C35.1598 19.1058 35.145 19.1021 35.1299 19.0981C34.9387 19.0482 34.7874 18.9795 34.6409 18.9082L34.4821 18.8302C34.2979 18.7403 34.112 18.6536 33.915 18.5896C33.4946 18.4531 33.0622 18.3569 32.623 18.3055C32.5279 18.2944 32.4362 18.2624 32.3639 18.2076C32.2953 18.1555 32.2429 18.0835 32.2189 17.9877C32.188 17.8638 32.1969 17.77 32.2636 17.6582C32.3139 17.5742 32.3857 17.516 32.4682 17.4826C32.5523 17.4486 32.648 17.4405 32.7432 17.4595Z" fill="black"/>
<path fill-rule="evenodd" clip-rule="evenodd" d="M36.2867 21.7933C36.1274 22.2251 35.8849 22.6745 35.5884 23.0379C34.3888 24.0495 33.2231 23.4894 32.6312 22.1184C32.4063 21.1495 33.0034 20.1058 33.6361 19.3931C34.5499 18.4811 36.0413 18.9597 36.4614 20.0439C36.487 20.1844 36.5024 20.3245 36.5098 20.4642C36.501 20.9181 36.4461 21.306 36.2867 21.7372M24.7555 20.9226C26.3359 19.0508 29.2925 18.9507 29.217 21.8317C28.8776 25.4783 23.1609 24.5833 24.7555 20.9226ZM36.7838 19.3611C36.7284 19.2677 36.667 19.1773 36.5999 19.0909C36.5751 19.0762 36.5608 18.9458 36.4697 18.9362C35.2512 17.5977 33.1108 18.3571 32.3374 19.6908C32.1961 19.8594 32.0809 20.0568 31.996 20.2654C31.2339 20.1262 30.3456 20.1533 29.6368 20.4399C28.9341 18.6126 26.8065 18.4495 25.4044 19.2302C24.5323 19.6573 23.9668 20.5517 23.1187 21.043C21.125 21.1859 18.9852 20.7411 17.0275 21.2391C15.4835 21.5587 16.7742 22.3372 17.0331 21.8177C18.8789 21.2746 21.0657 21.7335 22.9821 21.6112C23.1814 21.9468 23.5635 22.2215 23.9444 22.2098C24.3557 25.8406 29.6731 25.2385 29.8565 22.0109C30.0646 21.6834 30.3234 21.3699 30.6937 21.1658C30.8355 21.1366 30.9725 21.0986 31.0977 21.0398C31.3116 21.0097 31.6413 21.1001 31.8382 21.2775C32.5125 25.3063 36.3973 24.8371 37.0915 21.3076C37.1053 21.2936 37.1439 21.241 37.1735 21.1566C37.4112 20.8437 37.9929 20.7274 37.9 20.1992C37.8172 19.6709 37.1472 19.6772 36.7838 19.3611Z" fill="black"/>
</g>
<defs>
<clipPath id="clip0_2101_16482">
<rect width="48" height="48" rx="16" fill="white"/>
</clipPath>
</defs>
</svg>
