<svg width="14" height="14" viewBox="0 0 14 14" fill="none" xmlns="http://www.w3.org/2000/svg">
<path d="M13.6667 7.00016C13.6667 3.32016 10.68 0.333496 7.00001 0.333496C3.32001 0.333496 0.333344 3.32016 0.333344 7.00016C0.333344 10.6802 3.32001 13.6668 7.00001 13.6668C10.68 13.6668 13.6667 10.6802 13.6667 7.00016ZM7.00001 8.86016V7.66683H5.00001C4.63334 7.66683 4.33334 7.36683 4.33334 7.00016C4.33334 6.6335 4.63334 6.3335 5.00001 6.3335H7.00001V5.14016C7.00001 4.84016 7.36001 4.6935 7.56668 4.90683L9.42668 6.76683C9.56001 6.90016 9.56001 7.10683 9.42668 7.24016L7.56668 9.10016C7.36001 9.30683 7.00001 9.16016 7.00001 8.86016Z" fill="black"/>
</svg>
